<?xml version="1.0" encoding="UTF-8" standalone="no"?>
<!DOCTYPE svg PUBLIC "-//W3C//DTD SVG 1.1//EN" "http://www.w3.org/Graphics/SVG/1.1/DTD/svg11.dtd">
<svg width="100%" height="100%" viewBox="0 0 296 822" version="1.1" xmlns="http://www.w3.org/2000/svg" xmlns:xlink="http://www.w3.org/1999/xlink" xml:space="preserve" xmlns:serif="http://www.serif.com/" style="fill-rule:evenodd;clip-rule:evenodd;stroke-linejoin:round;stroke-miterlimit:2;">
    <g transform="matrix(1,0,0,1,-81.4156,-69.9341)">
        <g id="Balloon" transform="matrix(1,0,0,1,-137.517,-50.9029)">
            <path d="M412,131C412.673,135.407 410.465,133.327 409,134L398.5,134L398.5,139C396.043,134.671 395.899,137.296 395,137C390.94,135.665 391.285,133.751 390,133C387.68,131.644 372.312,132.077 373,133.5C374.02,134.493 375.713,133.819 377,134L374,141C362.147,136.755 342.307,154.699 333,162C330.948,159.213 323.406,152.567 320,151L346.5,138L317,151C312.344,149.664 313.771,150.044 317,146.5C315.184,143.147 300.323,155.123 298,157C296.427,158.271 294.42,159.601 293,161C274.259,167.121 257.381,181.365 245,197L244,196C279.412,135.142 343.607,108.314 412,131ZM368.5,128C367.729,128.083 358.959,128.766 360.5,131L382,128.5C381.998,127.804 369.984,127.84 368.5,128ZM360.5,133C359.891,133.066 353.799,134.678 354,135.5L365.5,134C366.04,132.338 361.231,132.921 360.5,133Z" style="fill:rgb(146,193,194);fill-rule:nonzero;"/>
            <path d="M368.5,128C369.984,127.84 381.998,127.804 382,128.5L360.5,131C358.959,128.766 367.729,128.083 368.5,128Z" style="fill:rgb(91,126,125);fill-rule:nonzero;"/>
            <path d="M469,168C462.459,172.525 461.458,165.919 457,164C456.401,163.742 454.9,164.155 454,164C452.415,163.095 450.858,162.545 450,162C450.63,160.115 452.426,161.978 452,159C451.265,153.863 449.54,154.558 446,153C441.802,151.152 441.643,153.396 440.5,153C438.611,152.345 439.569,149.232 437.5,148C433.991,145.91 417.827,136.341 415.5,137C414.803,137.197 416.726,139.507 414.5,140C413.227,140.282 407.346,135.42 404.5,137C404.09,134.939 407.253,134.802 409,134C410.465,133.327 412.673,135.407 412,131C436.072,138.985 451.59,149.821 469,168Z" style="fill:rgb(180,207,147);fill-rule:nonzero;"/>
            <path d="M390,133C385.727,134.229 381.409,134.62 377,134C375.713,133.819 374.02,134.493 373,133.5C372.312,132.077 387.68,131.644 390,133Z" style="fill:rgb(105,142,141);fill-rule:nonzero;"/>
            <path d="M360.5,133C361.231,132.921 366.04,132.338 365.5,134L354,135.5C353.799,134.678 359.891,133.066 360.5,133Z" style="fill:rgb(97,134,132);fill-rule:nonzero;"/>
            <path d="M390,133C391.285,133.751 390.94,135.665 395,137C399.407,146.204 413.525,135.95 418.5,145C415.956,146.119 409.468,141.909 408.5,142C407.891,142.058 409.595,144.686 407.5,145C406.153,145.202 397.948,146.228 397.5,146C393.858,144.142 399.994,137.528 383,143C378.505,144.447 381.149,147.772 379.5,148C374.217,145.58 379.139,144.609 379,144.5C377.696,143.473 376.017,144.333 375.5,144C373.62,142.789 374.158,141.057 374,141L377,134C381.409,134.62 385.727,134.229 390,133Z" style="fill:rgb(160,204,185);fill-rule:nonzero;"/>
            <path d="M409,134C407.253,134.802 404.09,134.939 404.5,137C407.346,135.42 413.227,140.282 414.5,140C416.726,139.507 414.803,137.197 415.5,137C417.827,136.341 433.991,145.91 437.5,148C439.569,149.232 438.611,152.345 440.5,153C441.643,153.396 441.802,151.152 446,153L440,155C438.534,153.636 437.753,156.31 437,154C438.079,150.271 436.092,148.628 436,154C435.977,155.343 437.082,159.701 436.5,160C434.49,158.534 432.88,158.591 431,158C430.696,157.905 427.093,152.764 426,156.5C424.46,161.765 430.646,158.884 431,159C439.133,161.669 431.227,162.687 431,163.5C433.868,165.256 436.77,163.039 440,167.5L433,169.5L441,170C440.005,173.616 434.501,170.43 437,174C436.9,174.025 437.346,175.849 436.5,176C435.827,176.12 436.181,173.912 435.5,174C433.415,174.27 431.929,175.211 430,175C430.107,172.376 429.786,173.012 428,174C424.525,170.564 428.473,172.396 428,171.5C426.961,169.534 424,170.192 424,169.5C424,169.055 427.15,170.193 428,165C428.535,161.733 427.518,164.039 427,164C426.697,163.977 422.873,164.896 421,165C420.84,165.009 422.012,162.439 418.5,163C414.095,163.704 404.432,170.831 399,167.5C404.473,168.186 410.827,162.92 413.5,162C415.761,161.222 420.646,164.698 424,159C425.874,155.816 424.617,157.518 423,158C421.461,158.459 422.306,160.589 420.5,160C420.15,159.886 419.168,157.001 419,157C419.071,156.362 418.856,155.538 419,155C421.951,143.987 404.084,144.873 398,148.5C404.23,151.142 399.403,156.223 407,157L407,158C401.499,158.792 405.403,163.811 399.5,159C399.792,167.7 397.873,160.074 397.5,160C393.497,159.208 390.345,161.498 387,162C368.662,164.754 350.947,172.416 333,177C332.176,175.092 333.832,174.345 334,174C333.769,177.319 335.806,175.558 337.5,175C357.542,168.398 377.267,160.944 398,157.5C394.556,157.403 398.674,151.636 396.5,150C395.124,148.965 378.081,154.301 375,155C376.397,150.256 396.34,149.848 396,146.5C395.967,146.176 390.823,143.047 390.5,143C390.04,142.933 380.992,147.066 383,143C399.994,137.528 393.858,144.142 397.5,146C397.948,146.228 406.153,145.202 407.5,145C409.595,144.686 407.891,142.058 408.5,142C409.468,141.909 415.956,146.119 418.5,145C413.525,135.95 399.407,146.204 395,137C395.899,137.296 396.043,134.671 398.5,139L398.5,134L409,134ZM420.5,144C420.285,144.006 417.971,147.287 418,147.5C419.566,159.057 425.062,147.614 427.5,153C430.134,148.766 423.239,149.853 423,149.5C421.919,147.903 428.144,143.789 420.5,144ZM432.5,153L432.5,155L433.5,155L433.5,154L432.5,153ZM399.5,156C398.48,156.541 400.389,158.013 400.5,158C402.387,157.786 402.074,154.635 399.5,156Z" style="fill:rgb(110,140,111);fill-rule:nonzero;"/>
            <path d="M320,151C319.608,150.82 318.552,151.159 318,151C317.692,150.911 317.308,151.088 317,151L346.5,138L320,151Z" style="fill:rgb(99,136,129);fill-rule:nonzero;"/>
            <path d="M374,141C374.158,141.057 373.62,142.789 375.5,144C376.017,144.333 377.696,143.473 379,144.5C379.139,144.609 374.217,145.58 379.5,148C381.149,147.772 378.505,144.447 383,143C380.992,147.066 390.04,142.933 390.5,143C390.823,143.047 395.967,146.176 396,146.5C396.34,149.848 376.397,150.256 375,155C374.583,155.095 369.335,153.243 366.5,154C364.068,154.649 358.331,160.649 355.5,162C349.425,164.9 341.903,166.297 336,170C336.702,164.167 335.5,165.395 333,162C342.307,154.699 362.147,136.755 374,141Z" style="fill:rgb(186,225,186);fill-rule:nonzero;"/>
            <path d="M420.5,144C428.144,143.789 421.919,147.903 423,149.5C423.239,149.853 430.134,148.766 427.5,153C425.062,147.614 419.566,159.057 418,147.5C417.971,147.287 420.285,144.006 420.5,144Z" style="fill:rgb(135,176,137);fill-rule:nonzero;"/>
            <path d="M317,151C317.308,151.088 317.692,150.911 318,151C318.275,153.521 308.191,160.031 307.5,160C305.608,159.916 301.958,154.977 298,157C300.323,155.123 315.184,143.147 317,146.5C313.771,150.044 312.344,149.664 317,151Z" style="fill:rgb(222,240,236);fill-rule:nonzero;"/>
            <path d="M419,155C415.928,155.734 409.903,157.297 407,157C399.403,156.223 404.23,151.142 398,148.5C404.084,144.873 421.951,143.987 419,155Z" style="fill:rgb(159,207,146);fill-rule:nonzero;"/>
            <path d="M334,174C334.411,173.156 335.973,170.222 336,170C341.903,166.297 349.425,164.9 355.5,162C358.331,160.649 364.068,154.649 366.5,154C369.335,153.243 374.583,155.095 375,155C378.081,154.301 395.124,148.965 396.5,150C398.674,151.636 394.556,157.403 398,157.5C377.267,160.944 357.542,168.398 337.5,175C335.806,175.558 333.769,177.319 334,174Z" style="fill:rgb(178,217,158);fill-rule:nonzero;"/>
            <path d="M320,151C323.406,152.567 330.948,159.213 333,162C335.5,165.395 336.702,164.167 336,170C335.973,170.222 334.411,173.156 334,174C333.832,174.345 332.176,175.092 333,177C331.527,177.376 329.814,178.275 328,178.5L332,179.5L320,208C318.852,207.824 319.099,208.879 319,209C314.555,214.462 312.504,231.103 311,238C309.603,244.406 306.806,252.127 306,260C305.966,260.33 306.032,260.67 306,261C299.424,265.905 300.06,260.19 296.5,259C292.984,257.825 292.729,265.613 288.5,253C288.024,257.179 285.345,264.969 285,268.5C284.393,274.72 287.086,281.927 287,285.5C286.896,289.835 282.627,300.869 284,304.5C285.187,307.641 288.436,303.796 290,305.5C291.069,306.665 289.462,316.033 290,318.5C291.504,325.401 296.686,333.697 298,341C294.944,343.051 291.783,344.446 290,348C281.555,354.64 281.745,328.222 274,324C274.399,323.561 276.139,321.576 275.5,321C273.703,321.288 272.578,322.922 271,324L258.5,286L255,286.5L258,316.5C256.406,315.512 254.482,311.669 254,310C253.874,309.563 254.431,309.74 254,308C253.172,304.659 252.538,298.709 252,295C251.953,294.674 252.043,294.328 252,294C250.719,284.268 249.788,278.132 250,268C250.007,267.667 249.99,267.333 250,267C250.241,259.223 251.391,251.719 252,244C252.672,243.267 253.547,241.936 254,241C256.597,235.63 259.218,217.895 262,211C262.067,210.833 263.54,209.08 264,208C269.814,194.347 280.838,173.945 291,163C291.559,162.398 292.387,161.604 293,161C294.42,159.601 296.427,158.271 298,157C301.958,154.977 305.608,159.916 307.5,160C308.191,160.031 318.275,153.521 318,151C318.552,151.159 319.608,150.82 320,151ZM310.5,183L280,200.5C289.536,197.411 306.243,192.36 310.5,183ZM263.5,251C260.309,251.533 259.418,262.247 261.5,262L263.5,251Z" style="fill:rgb(197,233,246);fill-rule:nonzero;"/>
            <path d="M437,154L436,154C436.092,148.628 438.079,150.271 437,154Z" style="fill:rgb(169,202,130);fill-rule:nonzero;"/>
            <path d="M432.5,153L433.5,154L433.5,155L432.5,155L432.5,153Z" style="fill:rgb(22,35,53);fill-rule:nonzero;"/>
            <path d="M446,153C449.54,154.558 451.265,153.863 452,159C448.341,160.167 446.432,159.734 450,162C450.858,162.545 452.415,163.095 454,164C454.767,164.437 455.2,167.952 457,164C461.458,165.919 462.459,172.525 469,168C469.644,168.672 470.315,169.259 471,170C469.68,170.169 468.263,170.613 467,171C466.11,171.272 464.579,170.819 463.5,171C461.442,174.323 465.332,174.261 468,175C469.494,179.538 472.016,179.471 473,181.5C473.448,182.423 471.237,183.859 472,185.5C472.429,186.423 473.92,185.854 474,186C474.207,186.378 473.573,187.561 474.5,188L475,186L479,186.5L477,189C474.978,188.86 474.587,189.204 473,190C468.373,192.32 474.107,193.791 470,194C469.823,193.436 468.178,191.062 468,190C468.016,189.841 470.032,187.935 470,187.5C469.777,184.494 464.029,182.847 463,181.5C462.707,181.116 465.776,175.516 458,176C457.975,175.934 457.674,176.26 457,175L460,172.5L455,173C454.836,172.808 455.168,172.165 455,172L459,169.5C449.691,168.632 446.024,160.605 440,155L446,153Z" style="fill:rgb(136,162,110);fill-rule:nonzero;"/>
            <path d="M419,157C416.704,156.991 409.393,157.655 407,158L407,157C409.903,157.297 415.928,155.734 419,155C418.856,155.538 419.071,156.362 419,157Z" style="fill:rgb(61,69,70);fill-rule:nonzero;"/>
            <path d="M431,158L431,159C430.646,158.884 424.46,161.765 426,156.5C427.093,152.764 430.696,157.905 431,158Z" style="fill:rgb(64,89,73);fill-rule:nonzero;"/>
            <path d="M399.5,156C402.074,154.635 402.387,157.786 400.5,158C400.389,158.013 398.48,156.541 399.5,156Z" style="fill:rgb(184,229,167);fill-rule:nonzero;"/>
            <path d="M419,157C419.168,157.001 420.15,159.886 420.5,160C422.306,160.589 421.461,158.459 423,158L424,159C420.646,164.698 415.761,161.222 413.5,162C410.827,162.92 404.473,168.186 399,167.5C404.432,170.831 414.095,163.704 418.5,163C422.012,162.439 420.84,165.009 421,165L419.5,165C417.526,164.842 417.526,166.158 419.5,166L421,165C422.873,164.896 426.697,163.977 427,164L428,165C427.15,170.193 424,169.055 424,169.5C424,170.192 426.961,169.534 428,171.5C428.473,172.396 424.525,170.564 428,174C428.168,174.166 427.618,175.835 428.5,176C428.718,176.041 429.099,174.901 430,175C431.929,175.211 433.415,174.27 435.5,174C436.181,173.912 435.827,176.12 436.5,176C437.346,175.849 436.9,174.025 437,174C438.484,173.636 439.831,172.336 442,173C442.831,174.967 443.212,177.11 444,179C440.148,183.216 436.204,178.918 435.5,179C435.244,179.03 434.242,182.892 433,183.5L445,183C444.92,183.173 443.857,182.306 443,184C442.74,184.514 443.056,186.897 443,188L441,187.5C440.25,189.538 441.995,189.865 442,190C442.117,193.042 443.025,194.629 443,195C437.355,197.274 440.209,190.03 436.5,196L433,195.5C431.602,185.84 434.778,181.227 426,176C425.893,175.936 426.575,173.517 424.5,174C422.641,176.414 426.004,175.875 426,176C425.898,179.48 423.789,177.196 422,178.5C427.807,181.678 427.141,175.7 430,183L427,182.5L430,184C430.826,187.254 433.298,197.533 429,197C419.813,187.864 427.396,195.714 423.5,198C421.871,198.956 409.339,200.119 406,201C390.654,205.047 374.825,209.372 360,215C366.539,206.07 379.531,198.998 381,187C394.953,182.755 409.588,179.691 423,175.5C419.3,172.882 418.699,176.295 415.5,177C406.018,179.09 394.053,180.399 385,183C387.511,176.929 394.711,167.021 387,162C390.345,161.498 393.497,159.208 397.5,160C397.873,160.074 399.792,167.7 399.5,159C405.403,163.811 401.499,158.792 407,158C409.393,157.655 416.704,156.991 419,157Z" style="fill:rgb(197,226,175);fill-rule:nonzero;"/>
            <path d="M424,159L423,158C424.617,157.518 425.874,155.816 424,159Z" style="fill:rgb(33,36,59);fill-rule:nonzero;"/>
            <path d="M452,159C452.426,161.978 450.63,160.115 450,162C446.432,159.734 448.341,160.167 452,159Z" style="fill:rgb(50,56,65);fill-rule:nonzero;"/>
            <path d="M293,161C292.387,161.604 291.559,162.398 291,163C270.004,172.329 250.451,187.862 240.5,209L245,197C257.381,181.365 274.259,167.121 293,161Z" style="fill:rgb(76,113,125);fill-rule:nonzero;"/>
            <path d="M387,162C394.711,167.021 387.511,176.929 385,183C362.904,189.35 341.564,200.094 320,208L332,179.5L328,178.5C329.814,178.275 331.527,177.376 333,177C350.947,172.416 368.662,164.754 387,162Z" style="fill:rgb(168,212,147);fill-rule:nonzero;"/>
            <path d="M291,163C280.838,173.945 269.814,194.347 264,208L235.5,229L236.5,216C224.388,246.744 220.176,281.117 230,313C226.003,312.58 228.548,309.113 224,307C219.971,259.466 219.27,238.5 244,196L245,197L240.5,209C250.451,187.862 270.004,172.329 291,163Z" style="fill:rgb(142,164,204);fill-rule:nonzero;"/>
            <path d="M428,165L427,164C427.518,164.039 428.535,161.733 428,165Z" style="fill:rgb(55,68,75);fill-rule:nonzero;"/>
            <path d="M439.5,164L440.5,164C442.474,163.842 442.474,165.158 440.5,165L439.5,164Z" style="fill:rgb(105,164,175);fill-rule:nonzero;"/>
            <path d="M457,164C455.2,167.952 454.767,164.437 454,164C454.9,164.155 456.401,163.742 457,164Z" style="fill:rgb(53,84,64);fill-rule:nonzero;"/>
            <path d="M421,165L419.5,166C417.526,166.158 417.526,164.842 419.5,165L421,165Z" style="fill:rgb(90,115,95);fill-rule:nonzero;"/>
            <path d="M455,172C455.168,172.165 454.836,172.808 455,173C455.725,173.85 456.933,174.875 457,175C457.674,176.26 457.975,175.934 458,176C458.332,176.866 459.934,180.367 457.5,180L449,169.5C449.437,166.591 454.65,171.655 455,172Z" style="fill:rgb(29,38,56);fill-rule:nonzero;"/>
            <path d="M442,173C439.831,172.336 438.484,173.636 437,174C434.501,170.43 440.005,173.616 441,170C444.342,168.066 441.908,172.781 442,173Z" style="fill:rgb(36,48,62);fill-rule:nonzero;"/>
            <path d="M467,171C468.328,172.427 467.65,173.938 468,175C465.332,174.261 461.442,174.323 463.5,171C464.579,170.819 466.11,171.272 467,171Z" style="fill:rgb(180,207,129);fill-rule:nonzero;"/>
            <path d="M457,175C456.933,174.875 455.725,173.85 455,173L460,172.5L457,175Z" style="fill:rgb(58,83,85);fill-rule:nonzero;"/>
            <path d="M430,175C429.099,174.901 428.718,176.041 428.5,176C427.618,175.835 428.168,174.166 428,174C429.786,173.012 430.107,172.376 430,175Z" style="fill:rgb(49,62,56);fill-rule:nonzero;"/>
            <path d="M381,187C359.887,193.424 339.806,201.826 319,209C319.099,208.879 318.852,207.824 320,208C341.564,200.094 362.904,189.35 385,183C394.053,180.399 406.018,179.09 415.5,177C418.699,176.295 419.3,172.882 423,175.5C409.588,179.691 394.953,182.755 381,187Z" style="fill:rgb(109,135,103);fill-rule:nonzero;"/>
            <path d="M426,176C426.004,175.875 422.641,176.414 424.5,174C426.575,173.517 425.893,175.936 426,176Z" style="fill:rgb(49,65,57);fill-rule:nonzero;"/>
            <path d="M443,195C442.647,200.291 433.221,193.079 434,203C434.21,205.671 436.226,210.711 437,214C437.344,215.461 438.676,216.837 438,219L434,209C434.176,207.846 433.032,208.063 433,208C433.021,205.128 431.757,200.282 430,198C429.957,197.944 429.288,197.286 429,197C433.298,197.533 430.826,187.254 430,184C429.917,183.672 430.106,183.27 430,183C427.141,175.7 427.807,181.678 422,178.5C423.789,177.196 425.898,179.48 426,176C434.778,181.227 431.602,185.84 433,195.5L436.5,196C440.209,190.03 437.355,197.274 443,195Z" style="fill:rgb(48,63,56);fill-rule:nonzero;"/>
            <path d="M444,179C444.644,180.544 447.876,176.794 445,183L433,183.5C434.242,182.892 435.244,179.03 435.5,179C436.204,178.918 440.148,183.216 444,179Z" style="fill:rgb(34,50,61);fill-rule:nonzero;"/>
            <path d="M430,183C430.106,183.27 429.917,183.672 430,184L427,182.5L430,183Z" style="fill:rgb(111,154,96);fill-rule:nonzero;"/>
            <path d="M310.5,183C306.243,192.36 289.536,197.411 280,200.5L310.5,183Z" style="fill:rgb(153,210,238);fill-rule:nonzero;"/>
            <path d="M446,185C445.165,189.678 451.401,194.464 444,195.5C444.028,198.326 445.038,195.868 446,196L444,206C440.265,206.688 438.671,208.082 438.5,212L434,203C433.221,193.079 442.647,200.291 443,195C443.025,194.629 442.117,193.042 442,190C443.378,190.031 442.952,188.962 443,188C443.056,186.897 442.74,184.514 443,184C443.846,184.84 445.882,184.895 446,185Z" style="fill:rgb(120,152,116);fill-rule:nonzero;"/>
            <path d="M446,196C445.038,195.868 444.028,198.326 444,195.5C451.401,194.464 445.165,189.678 446,185C447.767,186.574 453.27,197.001 446,196Z" style="fill:rgb(19,38,53);fill-rule:nonzero;"/>
            <path d="M474,186L475,186L474.5,188C473.573,187.561 474.207,186.378 474,186Z" style="fill:rgb(72,79,54);fill-rule:nonzero;"/>
            <path d="M381,187C379.531,198.998 366.539,206.07 360,215C343.25,221.358 327.242,230.484 311,238C312.504,231.103 314.555,214.462 319,209C339.806,201.826 359.887,193.424 381,187Z" style="fill:rgb(166,211,147);fill-rule:nonzero;"/>
            <path d="M443,188C442.952,188.962 443.378,190.031 442,190C441.995,189.865 440.25,189.538 441,187.5L443,188Z" style="fill:rgb(72,81,84);fill-rule:nonzero;"/>
            <path d="M451.5,187L452.5,188L452.5,189L451.5,189L451.5,187Z" style="fill:rgb(14,15,40);fill-rule:nonzero;"/>
            <path d="M477,189C477.327,189.023 478.805,190.019 482,191L482,192C480.764,191.814 477.697,191.369 478,193.5L485,205.5C486.263,207.098 487.639,206.017 490,206C491.335,205.99 494.527,204.003 495,205.5C495.142,205.951 492.104,204.977 494,213L493,213C489.063,205.448 490.083,208.643 482,209C480.063,209.086 481.166,206.803 479,210.5C476.454,208.242 478.188,201.912 478,201.5C477.829,201.125 472.942,201.081 472,197.5C471.584,195.917 475.061,193.23 473,190C474.587,189.204 474.978,188.86 477,189Z" style="fill:rgb(147,168,110);fill-rule:nonzero;"/>
            <path d="M470,194C470.633,196.013 471.357,200.292 468,200.5C468.871,197.584 465.953,191.989 466,191.5C466.076,190.718 467.987,190.124 468,190C468.178,191.062 469.823,193.436 470,194Z" style="fill:rgb(25,44,68);fill-rule:nonzero;"/>
            <path d="M484,193C483.122,193.037 482.999,192.15 482,192L482,191C482.875,191.269 484.318,190.483 485,191.5C485.825,192.731 483.97,192.915 484,193Z" style="fill:rgb(47,58,51);fill-rule:nonzero;"/>
            <path d="M429,197C429.288,197.286 429.957,197.944 430,198C427.128,199.075 429.097,205.617 430.5,208C430.632,208.224 432.908,207.818 433,208C433.032,208.063 434.176,207.846 434,209C431.021,210.324 430.828,212.028 431,215L430,215C429.71,213.435 430.502,212.211 428.5,211L396.5,223C399.691,218.692 428.225,211.318 429,208.5C432.38,196.216 413.309,211.213 410,209.5C411.309,207.951 429.713,200.868 426.5,199C420.11,200.311 413.359,200.722 407,202L406,201C409.339,200.119 421.871,198.956 423.5,198C427.396,195.714 419.813,187.864 429,197Z" style="fill:rgb(71,90,77);fill-rule:nonzero;"/>
            <path d="M482,192C482.999,192.15 483.122,193.037 484,193C485.35,196.867 482.338,197.15 489,199L490,199C491.68,203.019 492.66,201.817 490,206C487.639,206.017 486.263,207.098 485,205.5L478,193.5C477.697,191.369 480.764,191.814 482,192Z" style="fill:rgb(201,219,152);fill-rule:nonzero;"/>
            <path d="M490,199L489,199C489.12,199.033 488.416,196.484 490.5,197C492.138,198.746 489.96,198.905 490,199Z" style="fill:rgb(23,98,100);fill-rule:nonzero;"/>
            <path d="M433,208C432.908,207.818 430.632,208.224 430.5,208C429.097,205.617 427.128,199.075 430,198C431.757,200.282 433.021,205.128 433,208Z" style="fill:rgb(201,220,176);fill-rule:nonzero;"/>
            <path d="M430,215C430.789,219.262 429.427,225.462 430,230C424.342,231.328 420.314,235.662 420.5,228C420.375,237.502 403.664,235.374 397,240.5L428.5,232C429.632,244.947 433.149,236.388 431,231C433.722,232.944 440.092,227.122 441,228.5C442.692,231.068 441.737,235.89 437.5,233C435.209,234.597 441.888,243.992 438,249.5C437.448,250.282 422.621,255.065 420,256C405.239,261.267 389.42,264.079 375,270.5C390.777,267.906 405.758,261.487 421,257C427.793,255 439.838,247.225 438.5,259C440.738,257.478 437.529,253.124 442,254.5C440.265,257.3 445.093,265.888 445,266.5C444.875,267.326 432.845,276.54 432,277C417.146,285.081 390.7,291.36 373.5,299C349.568,309.63 326.904,322.811 305,337L304,304L369,273.5C358.918,276.516 309.526,296.29 305,302C304.146,297.745 302.868,280.95 304,278L367,250.5C359.388,251.52 350.596,255.058 343.5,258C337.812,260.358 309.131,273.345 306,276C305.145,271.759 305.577,265.307 306,261C306.032,260.67 305.966,260.33 306,260C310.649,258.794 314.717,255.981 319,254C336.201,246.045 353.919,239.1 371.5,232C356.41,235.246 339.255,242.906 325,250L329,231C352.921,220.045 381.161,207.192 407,202C413.359,200.722 420.11,200.311 426.5,199C429.713,200.868 411.309,207.951 410,209.5C413.309,211.213 432.38,196.216 429,208.5C428.225,211.318 399.691,218.692 396.5,223L428.5,211C430.502,212.211 429.71,213.435 430,215Z" style="fill:rgb(194,224,171);fill-rule:nonzero;"/>
            <path d="M446.5,199C449.633,196.361 452.628,209.207 446,205.5L446.5,199Z" style="fill:rgb(111,148,134);fill-rule:nonzero;"/>
            <path d="M407,202C381.161,207.192 352.921,220.045 329,231C323.718,233.419 316.7,237.768 311,238C327.242,230.484 343.25,221.358 360,215C374.825,209.372 390.654,205.047 406,201L407,202Z" style="fill:rgb(96,120,92);fill-rule:nonzero;"/>
            <path d="M472.5,201C474.796,200.449 475.289,215.232 474.5,217C471.694,215.785 470.514,201.476 472.5,201Z" style="fill:rgb(23,38,62);fill-rule:nonzero;"/>
            <path d="M453.5,202C457.43,201.336 456.599,211.767 455.5,214C455.63,212.957 452.774,202.123 453.5,202Z" style="fill:rgb(29,40,66);fill-rule:nonzero;"/>
            <path d="M444,206C444.529,205.902 446.042,207.417 447,208C443.475,214.127 449.762,221.341 444.5,226C438.518,225.009 443.395,212.054 437,214C436.226,210.711 434.21,205.671 434,203L438.5,212C438.671,208.082 440.265,206.688 444,206Z" style="fill:rgb(187,216,171);fill-rule:nonzero;"/>
            <path d="M464.5,206C465.738,207.836 464.891,210.132 463.5,208C462.792,206.914 463.888,206.793 464.5,206Z" style="fill:rgb(15,25,34);fill-rule:nonzero;"/>
            <path d="M449,230C447.159,226.746 444.96,227.142 442,228.5L445,229.5C442.281,235.108 442.985,240.305 443,246.5L445,247.5L454,243C454.069,243.65 453.949,244.346 454,245C452.277,245.495 443.345,249.187 443,250.5C442.764,251.4 444.699,267.879 445,269L436,275.5L447,272C447.357,272.653 446.197,274.942 448,275C447.782,275.052 444.394,276.78 444,277C448.956,272.713 432.679,278.786 432,279L432,277C432.845,276.54 444.875,267.326 445,266.5C445.093,265.888 440.265,257.3 442,254.5C437.529,253.124 440.738,257.478 438.5,259C439.838,247.225 427.793,255 421,257L420,256C422.621,255.065 437.448,250.282 438,249.5C441.888,243.992 435.209,234.597 437.5,233C441.737,235.89 442.692,231.068 441,228.5C440.092,227.122 433.722,232.944 431,231C430.816,230.54 431.074,229.854 430,230C429.427,225.462 430.789,219.262 430,215L431,215C431.142,217.466 433.959,222.098 434,222.5C434.042,222.915 429.528,227.804 432.5,230C433.805,230.964 445.205,223.833 438,219C438.676,216.837 437.344,215.461 437,214C443.395,212.054 438.518,225.009 444.5,226C449.762,221.341 443.475,214.127 447,208C447.687,208.418 448.275,206.345 449,207.5C451.084,210.818 453.207,223.851 447,225.5L452,225.5L449,230Z" style="fill:rgb(108,147,123);fill-rule:nonzero;"/>
            <path d="M264,208C263.54,209.08 262.067,210.833 262,211C244.332,221.698 225.358,233.057 228.5,257L254,241C253.547,241.936 252.672,243.267 252,244C249.298,246.946 228.308,257.078 227,259.5C224.817,263.541 226.878,276.407 227,281C227.01,281.378 226.937,282.022 227,283C227.32,287.958 227.342,309.616 233,310C232.468,311.228 232.079,311.341 232,313C229.833,314.68 230.099,313.01 230,313C220.176,281.117 224.388,246.744 236.5,216L235.5,229L264,208Z" style="fill:rgb(70,91,135);fill-rule:nonzero;"/>
            <path d="M438,219C445.205,223.833 433.805,230.964 432.5,230C429.528,227.804 434.042,222.915 434,222.5C433.959,222.098 431.142,217.466 431,215C430.828,212.028 431.021,210.324 434,209L438,219Z" style="fill:rgb(198,223,177);fill-rule:nonzero;"/>
            <path d="M254,241L228.5,257C225.358,233.057 244.332,221.698 262,211C259.218,217.895 256.597,235.63 254,241Z" style="fill:rgb(133,151,200);fill-rule:nonzero;"/>
            <path d="M455,219L454.5,223L453,217.5C454.344,216.277 453.403,218.781 455,219Z" style="fill:rgb(119,164,157);fill-rule:nonzero;"/>
            <path d="M455,219C455.102,219.014 456.921,216.335 457,219.5L455,219Z" style="fill:rgb(35,32,49);fill-rule:nonzero;"/>
            <path d="M478.5,218C482.255,217.469 478.174,222.151 477,219.5C476.957,219.403 478.395,218.015 478.5,218Z" style="fill:rgb(26,20,58);fill-rule:nonzero;"/>
            <path d="M458.5,223L460,224.5L456.5,227C454.849,224.28 456.712,224.364 458.5,223Z" style="fill:rgb(116,169,174);fill-rule:nonzero;"/>
            <path d="M454.5,224C455.435,228.174 454.307,231.9 458.5,234C455.153,225.854 462.96,225.101 466,232.5C455.305,240.009 450.507,236.006 454.5,224Z" style="fill:rgb(92,138,149);fill-rule:nonzero;"/>
            <path d="M449,230C449.062,230.109 445.921,229.808 447,231.5C448.162,233.323 450.359,229.891 452,232.5C452.285,232.952 453.874,241.805 454,243L445,247.5L443,246.5C442.985,240.305 442.281,235.108 445,229.5L442,228.5C444.96,227.142 447.159,226.746 449,230Z" style="fill:rgb(138,188,158);fill-rule:nonzero;"/>
            <path d="M430,230C431.074,229.854 430.816,230.54 431,231C433.149,236.388 429.632,244.947 428.5,232L397,240.5C403.664,235.374 420.375,237.502 420.5,228C420.314,235.662 424.342,231.328 430,230Z" style="fill:rgb(90,108,91);fill-rule:nonzero;"/>
            <path d="M487,232C485.513,228.393 487.025,229.148 487,229L487,232Z" style="fill:rgb(5,24,71);fill-rule:nonzero;"/>
            <path d="M325,250C323.01,250.99 319.953,251.663 319,254C314.717,255.981 310.649,258.794 306,260C306.806,252.127 309.603,244.406 311,238C316.7,237.768 323.718,233.419 329,231L325,250Z" style="fill:rgb(166,212,148);fill-rule:nonzero;"/>
            <path d="M319,254C319.953,251.663 323.01,250.99 325,250C339.255,242.906 356.41,235.246 371.5,232C353.919,239.1 336.201,246.045 319,254Z" style="fill:rgb(80,96,80);fill-rule:nonzero;"/>
            <path d="M487.5,234C487.988,233.973 488.174,234.876 488,235.5C487.432,239.22 486.223,234.072 487.5,234Z" style="fill:rgb(126,163,173);fill-rule:nonzero;"/>
            <path d="M465,246C461.874,246.658 459.504,247.255 457.5,250C455.123,248.678 456.478,246.541 456,245C453.291,236.265 456.791,234.924 463,239.5C452.897,245.844 466.283,238.827 465,246Z" style="fill:rgb(120,169,166);fill-rule:nonzero;"/>
            <path d="M480.5,240C482.337,240.283 477.353,259.965 475.5,259C473.407,250.033 479.2,248.203 480.5,240Z" style="fill:rgb(24,42,66);fill-rule:nonzero;"/>
            <path d="M252,244C251.391,251.719 250.241,259.223 250,267L227,281C226.878,276.407 224.817,263.541 227,259.5C228.308,257.078 249.298,246.946 252,244Z" style="fill:rgb(128,147,198);fill-rule:nonzero;"/>
            <path d="M464,248L465,253C463.174,253.822 460.003,253.725 462,256C447.531,258.231 454.804,260.585 452,272C450.873,272.227 448.252,273.593 448,275C446.197,274.942 447.357,272.653 447,272C446.467,271.026 445.047,269.174 445,269C444.699,267.879 442.764,251.4 443,250.5C443.345,249.187 452.277,245.495 454,245C454.26,248.357 456.639,251.267 452,252.5L454.5,254C457.021,250.936 460.799,249.824 464,248Z" style="fill:rgb(121,173,156);fill-rule:nonzero;"/>
            <path d="M456,245C456.478,246.541 455.123,248.678 457.5,250C459.504,247.255 461.874,246.658 465,246C466.162,245.756 467.415,243.955 469,245.5C467.702,247.277 465.881,246.928 464,248C460.799,249.824 457.021,250.936 454.5,254L452,252.5C456.639,251.267 454.26,248.357 454,245C454.51,244.853 455.358,245.074 456,245Z" style="fill:rgb(53,82,104);fill-rule:nonzero;"/>
            <path d="M486.5,246C488.975,245.777 487.058,247.596 486.5,249C485.717,248.384 485.656,246.793 486.5,246Z" style="fill:rgb(21,29,68);fill-rule:nonzero;"/>
            <path d="M493,251C492.961,249.678 492.998,248.324 493,247L493,251Z" style="fill:rgb(109,148,98);fill-rule:nonzero;"/>
            <path d="M304,278C304.593,276.456 305.257,276.63 306,276C309.131,273.345 337.812,260.358 343.5,258C350.596,255.058 359.388,251.52 367,250.5L304,278Z" style="fill:rgb(75,91,74);fill-rule:nonzero;"/>
            <path d="M263.5,251L261.5,262C259.418,262.247 260.309,251.533 263.5,251Z" style="fill:rgb(168,214,238);fill-rule:nonzero;"/>
            <path d="M462,258C461.907,257.964 462.063,256.686 462,256C460.003,253.725 463.174,253.822 465,253C467.237,251.993 466.898,250.218 470,252.5C467.707,252.655 462.453,258.173 462,258Z" style="fill:rgb(33,37,55);fill-rule:nonzero;"/>
            <path d="M306,261C305.577,265.307 305.145,271.759 306,276C305.257,276.63 304.593,276.456 304,278C302.868,280.95 304.146,297.745 305,302C304.837,302.206 303.39,302.081 304,304L305,337C303.925,337.697 304.059,337.961 304,338C302.359,339.072 299.392,340.066 298,341C296.686,333.697 291.504,325.401 290,318.5C289.462,316.033 291.069,306.665 290,305.5C288.436,303.796 285.187,307.641 284,304.5C282.627,300.869 286.896,289.835 287,285.5C287.086,281.927 284.393,274.72 285,268.5C285.345,264.969 288.024,257.179 288.5,253C292.729,265.613 292.984,257.825 296.5,259C300.06,260.19 299.424,265.905 306,261Z" style="fill:rgb(234,245,243);fill-rule:nonzero;"/>
            <path d="M468.5,255L469,256.5L467.5,257L467,256.5L468.5,255Z" style="fill:rgb(22,28,54);fill-rule:nonzero;"/>
            <path d="M420,256L421,257C405.758,261.487 390.777,267.906 375,270.5C389.42,264.079 405.239,261.267 420,256Z" style="fill:rgb(60,71,64);fill-rule:nonzero;"/>
            <path d="M468,263C467.707,264.358 467.045,263.945 467,264C464.736,266.776 462.848,264.74 462.5,265C462.06,265.329 458.651,273.213 454,269.5C456.177,262.724 452.756,258.791 462,258C465.706,257.683 468.95,258.593 468,263Z" style="fill:rgb(130,181,159);fill-rule:nonzero;"/>
            <path d="M467,264C467.045,263.945 467.707,264.358 468,263L471.5,262C474.408,263.164 465.733,268.129 467,264Z" style="fill:rgb(23,23,42);fill-rule:nonzero;"/>
            <path d="M250,267C249.99,267.333 250.007,267.667 250,268L227,283C226.937,282.022 227.01,281.378 227,281L250,267Z" style="fill:rgb(85,105,151);fill-rule:nonzero;"/>
            <path d="M252,294C246.923,295.941 235.003,305.374 233,310C227.342,309.616 227.32,287.958 227,283L250,268C249.788,278.132 250.719,284.268 252,294Z" style="fill:rgb(124,142,194);fill-rule:nonzero;"/>
            <path d="M465.5,268C468.074,266.635 468.387,269.786 466.5,270C466.389,270.013 464.48,268.541 465.5,268Z" style="fill:rgb(143,179,215);fill-rule:nonzero;"/>
            <path d="M447,272L436,275.5L445,269C445.047,269.174 446.467,271.026 447,272Z" style="fill:rgb(176,215,170);fill-rule:nonzero;"/>
            <path d="M463,275C459.382,270.086 458.451,275.554 455,278L452,278C451.116,277.148 454.089,273.557 448,275C448.252,273.593 450.873,272.227 452,272C452.132,271.973 451.782,273.521 454.5,273C456.554,272.606 466.611,266.294 466,272.5C465.951,272.994 463.65,272.802 463,275Z" style="fill:rgb(108,147,123);fill-rule:nonzero;"/>
            <path d="M304,304C303.39,302.081 304.837,302.206 305,302C309.526,296.29 358.918,276.516 369,273.5L304,304Z" style="fill:rgb(110,132,95);fill-rule:nonzero;"/>
            <path d="M463,275C459.959,285.286 459.309,281.614 451,289C443.422,292.782 437.116,298.595 430,303C426.394,297.803 437.988,296.62 440,293.5C436.419,292.185 430.545,300.287 429,295C433.924,289.465 437.022,280.895 444,277C444.394,276.78 447.782,275.052 448,275C454.089,273.557 451.116,277.148 452,278C452.189,278.182 452.701,279.71 453.5,280C454.296,279.724 454.898,278.072 455,278C458.451,275.554 459.382,270.086 463,275Z" style="fill:rgb(130,184,154);fill-rule:nonzero;"/>
            <path d="M478.5,274C482.597,274.249 477.921,280.093 475.5,280C474.061,278.5 478.003,273.97 478.5,274Z" style="fill:rgb(26,41,71);fill-rule:nonzero;"/>
            <path d="M444,277C437.022,280.895 433.924,289.465 429,295C416.759,308.759 363.411,329.879 343.5,341C329.83,348.635 316.243,357.194 304,367C299.212,369.735 292.651,375.207 289,377C288.735,377.13 288.283,376.877 288,377C288.224,374.628 283.521,362.141 284,361.5C284.959,360.217 291.891,362.477 285,354C285.093,353.937 285.898,352.422 286,352C287.506,351.015 289.049,349.616 290,349C295.04,345.733 299.924,342.158 305,339C347.331,312.664 384.036,294.142 432,279C432.679,278.786 448.956,272.713 444,277Z" style="fill:rgb(190,224,172);fill-rule:nonzero;"/>
            <path d="M432,279C384.036,294.142 347.331,312.664 305,339L304,338C304.059,337.961 303.925,337.697 305,337C326.904,322.811 349.568,309.63 373.5,299C390.7,291.36 417.146,285.081 432,277L432,279Z" style="fill:rgb(98,119,95);fill-rule:nonzero;"/>
            <path d="M455,278C454.898,278.072 454.296,279.724 453.5,280C452.701,279.71 452.189,278.182 452,278L455,278Z" style="fill:rgb(57,80,93);fill-rule:nonzero;"/>
            <path d="M453,295C452.942,293.101 453.533,289.61 451,291.5C449.948,293.739 450.378,295.646 450,298C447.178,297.581 421.767,311.369 421,307.5C424.012,306.294 427.266,304.692 430,303C437.116,298.595 443.422,292.782 451,289C453.895,287.555 457.335,285.873 460.5,285L457,287.5L465,291.5L453,295Z" style="fill:rgb(195,223,176);fill-rule:nonzero;"/>
            <path d="M271,324C267.267,326.55 243.294,345.752 241.5,345C240.622,341.916 234.676,328.406 235,326.5C235.266,324.933 251.391,312.044 254,310C254.482,311.669 256.406,315.512 258,316.5L255,286.5L258.5,286L271,324Z" style="fill:rgb(132,151,200);fill-rule:nonzero;"/>
            <path d="M487.5,286C489.975,285.777 488.058,287.596 487.5,289C486.717,288.384 486.656,286.793 487.5,286Z" style="fill:rgb(22,30,60);fill-rule:nonzero;"/>
            <path d="M453,295C453.024,295.773 451.979,296.069 452,298C452.028,300.63 452.695,301.326 453,303C453.018,303.098 451.469,303.619 453,305C452.847,305.167 452.16,304.834 452,305C451.716,305.295 451.281,305.74 451,306C446.863,306.411 450.889,301.899 451,300C451.056,299.047 449.861,298.869 450,298C450.378,295.646 449.948,293.739 451,291.5C453.533,289.61 452.942,293.101 453,295Z" style="fill:rgb(50,65,68);fill-rule:nonzero;"/>
            <path d="M430,303C427.266,304.692 424.012,306.294 421,307.5C421.767,311.369 447.178,297.581 450,298C449.861,298.869 451.056,299.047 451,300C447.705,300.781 442.453,301.727 439.5,303C435.591,304.685 431.041,309.82 430.5,310C430.306,310.065 428.701,307.94 428.5,308C423.51,309.497 418.385,310.161 413.5,312C413.809,308.384 422.063,308.658 420.5,304C388.934,319.71 357.615,335.49 327,353C319.228,357.445 311.839,362.522 304,367C316.243,357.194 329.83,348.635 343.5,341C363.411,329.879 416.759,308.759 429,295C430.545,300.287 436.419,292.185 440,293.5C437.988,296.62 426.394,297.803 430,303Z" style="fill:rgb(106,135,104);fill-rule:nonzero;"/>
            <path d="M252,294C252.043,294.328 251.953,294.674 252,295C247.908,296.307 235.865,310.195 233,310C235.003,305.374 246.923,295.941 252,294Z" style="fill:rgb(70,91,135);fill-rule:nonzero;"/>
            <path d="M254,308L235.5,324C234.024,323.685 231.916,314.775 232,313C232.079,311.341 232.468,311.228 233,310C235.865,310.195 247.908,296.307 252,295C252.538,298.709 253.172,304.659 254,308Z" style="fill:rgb(127,146,197);fill-rule:nonzero;"/>
            <path d="M452,305C452.16,304.834 452.847,305.167 453,305C454.006,303.907 455.883,304.283 457,303.5L453,303C452.695,301.326 452.028,300.63 452,298L459.5,295L460.5,297L454,300.5L463,300.5L458,303.5C468.644,304.3 450.328,313.272 452,305Z" style="fill:rgb(171,196,164);fill-rule:nonzero;"/>
            <path d="M451,300C450.889,301.899 446.863,306.411 451,306C449.773,307.136 453.713,307.894 448,310C447.138,310.318 446.804,310.922 446,311C445.129,311.253 438.87,314.029 439,314.5C445.722,311.877 446.987,315.981 447.5,316C448.184,316.026 453.233,308.029 458.5,309C459.081,312.771 454.386,310.004 453,314C452.735,314.763 454.171,315.144 454,316C451.014,317.36 448.437,319.553 445.5,321C445.373,321.062 443.627,318.937 443.5,319C443.198,319.15 442.136,322.137 440.5,323C437.62,324.519 427.404,327.353 428.5,331L443.5,323C444.773,325.459 441.991,326.63 441,328C438.519,331.432 437.054,332.911 435,337C431.803,339.65 429.042,343.243 426,346C425.866,346.121 424.677,346.409 423,348C422.699,348.285 422.551,348.273 422,349C420.132,348.456 420.46,349.524 420,350C419.697,350.314 419.324,350.676 419,351L411,356.5C412.156,358.143 413.331,355.68 414,356C414.886,356.423 415.901,358.158 417,359C413.134,361.542 408.121,363.761 404,366C391.678,372.693 375.015,381.383 363,385C368.655,380.343 373.439,373.008 376,366C376.134,365.905 376.899,364.804 378,364C380.297,362.322 376.779,362.108 379.5,360C386.473,354.598 393.13,349.583 400,344C402.002,342.373 403.938,340.659 406,339C410.535,338.755 414.843,333.709 418,331C418.822,330.565 421.234,331.056 421,328.5C419.61,327.564 418.436,330.626 418,331C417.622,331.201 416.331,330.801 416,331L415,328C415.43,327.729 419.712,325.307 416.5,325L400.5,332C379.12,342.94 357.875,354.149 337,366L327,353C357.615,335.49 388.934,319.71 420.5,304C422.063,308.658 413.809,308.384 413.5,312C418.385,310.161 423.51,309.497 428.5,308C428.701,307.94 430.306,310.065 430.5,310C431.041,309.82 435.591,304.685 439.5,303C442.453,301.727 447.705,300.781 451,300ZM432,319C430.669,320.316 431.332,322.314 431,323C430.92,323.098 427.646,322.637 429.5,325C430.267,324.45 430.596,323.835 431,323C431.922,321.871 433.811,322.056 433,319C434.872,315.203 431.68,315.864 430,318.5L432,319ZM443.5,316C443.328,316.024 441.486,317.486 442.5,318C444.581,317.981 445.999,315.652 443.5,316ZM427.5,319C427.395,319.015 425.957,320.403 426,320.5C427.174,323.151 431.255,318.469 427.5,319ZM426.5,327C416.876,346.807 396.898,351.034 380,362.5C396.047,354.721 416.924,347.615 426,331.5C426.111,331.303 427.875,327.035 426.5,327ZM427.5,336C427.328,336.024 425.486,337.486 426.5,338C428.581,337.981 429.999,335.652 427.5,336ZM424.5,341L419,345.5C419.775,347.135 427.639,342.27 424.5,341Z" style="fill:rgb(169,201,162);fill-rule:nonzero;"/>
            <path d="M453,305C451.469,303.619 453.018,303.098 453,303L457,303.5C455.883,304.283 454.006,303.907 453,305Z" style="fill:rgb(77,72,120);fill-rule:nonzero;"/>
            <path d="M446,311C446.804,310.922 447.138,310.318 448,310C447.732,314.078 446.186,310.946 446,311Z" style="fill:rgb(15,9,35);fill-rule:nonzero;"/>
            <path d="M229,334C227.149,329.463 223.756,318.31 225,314L240,346.5C237.248,354.158 229.893,336.189 229,334Z" style="fill:rgb(129,148,194);fill-rule:nonzero;"/>
            <path d="M454,316C454.171,315.144 452.735,314.763 453,314L461,313.5C458.09,315.771 457.143,314.569 454,316Z" style="fill:rgb(131,164,191);fill-rule:nonzero;"/>
            <path d="M481.5,315C481.611,314.987 483.52,316.459 482.5,317C479.926,318.365 479.613,315.214 481.5,315Z" style="fill:rgb(28,41,53);fill-rule:nonzero;"/>
            <path d="M433,319L432,319L430,318.5C431.68,315.864 434.872,315.203 433,319Z" style="fill:rgb(29,32,44);fill-rule:nonzero;"/>
            <path d="M443.5,316C445.999,315.652 444.581,317.981 442.5,318C441.486,317.486 443.328,316.024 443.5,316Z" style="fill:rgb(69,74,80);fill-rule:nonzero;"/>
            <path d="M427.5,319C431.255,318.469 427.174,323.151 426,320.5C425.957,320.403 427.395,319.015 427.5,319Z" style="fill:rgb(75,101,77);fill-rule:nonzero;"/>
            <path d="M431,323C431.332,322.314 430.669,320.316 432,319L433,319C433.811,322.056 431.922,321.871 431,323Z" style="fill:rgb(69,93,74);fill-rule:nonzero;"/>
            <path d="M448,324L447,326C442.986,325.045 444.836,319.334 448,324Z" style="fill:rgb(146,182,204);fill-rule:nonzero;"/>
            <path d="M431,323C430.596,323.835 430.267,324.45 429.5,325C427.646,322.637 430.92,323.098 431,323Z" style="fill:rgb(69,93,74);fill-rule:nonzero;"/>
            <path d="M290,348L290,349C289.049,349.616 287.506,351.015 286,352C283.373,353.718 278.185,355.935 275,358L263,333C265.158,331.336 272.651,325.485 274,324C281.745,328.222 281.555,354.64 290,348Z" style="fill:rgb(148,166,208);fill-rule:nonzero;"/>
            <path d="M449,326C448.932,326.074 447.482,326.115 447,326L448,324C448.066,324.097 450.15,324.743 449,326Z" style="fill:rgb(22,28,42);fill-rule:nonzero;"/>
            <path d="M415,328C410.88,330.597 405.41,331.886 401,334C387.13,340.648 373.495,347.634 360,355C342.125,364.756 324.232,375.168 307,386L307,385C317.091,378.978 326.781,371.801 337,366C357.875,354.149 379.12,342.94 400.5,332L416.5,325C419.712,325.307 415.43,327.729 415,328Z" style="fill:rgb(91,122,89);fill-rule:nonzero;"/>
            <path d="M435,337C437.054,332.911 438.519,331.432 441,328C444.871,329.792 448.56,326.094 449,326C449.98,325.791 449.999,327.541 452.5,325C458.494,333.832 441.607,331.223 442,334.5C442.052,334.935 447.843,337.658 442.5,341C439.483,342.887 438.186,340.408 436.5,341C434.361,341.751 434.738,346.032 431.5,344C433.102,341.872 433.861,339.268 435,337Z" style="fill:rgb(94,129,193);fill-rule:nonzero;"/>
            <path d="M426.5,327C427.875,327.035 426.111,331.303 426,331.5C416.924,347.615 396.047,354.721 380,362.5C396.898,351.034 416.876,346.807 426.5,327Z" style="fill:rgb(89,114,98);fill-rule:nonzero;"/>
            <path d="M416,331C412.374,333.179 409.271,336.368 406,339C403.938,340.659 402.002,342.373 400,344C390.357,348.626 381.96,361.109 371,359L401,334C405.41,331.886 410.88,330.597 415,328L416,331Z" style="fill:rgb(186,221,165);fill-rule:nonzero;"/>
            <path d="M418,331C418.436,330.626 419.61,327.564 421,328.5C421.234,331.056 418.822,330.565 418,331Z" style="fill:rgb(60,85,76);fill-rule:nonzero;"/>
            <path d="M418,331C414.843,333.709 410.535,338.755 406,339C409.271,336.368 412.374,333.179 416,331C416.331,330.801 417.622,331.201 418,331Z" style="fill:rgb(60,85,76);fill-rule:nonzero;"/>
            <path d="M495,332C494.484,334.36 492.774,336.322 496,336C491.018,355.449 482.719,374.673 477,392.5C476.877,392.883 470.571,396.135 475.5,399C477.105,395.967 479.89,394.851 482,392L484,393C481.385,397.549 477.874,401.643 475,406C470.683,405.688 473.344,401.52 468.5,404C466.634,404.955 446.196,432.073 442,436.5C431.037,448.066 415.883,463.4 402,471C402.131,462.068 381.928,481.426 384,472C388.991,470 390.931,462.938 397.5,461L391,467.5C392.311,470.225 402.317,460.958 404.5,460C404.834,459.853 406.273,463.47 410.5,460C415.416,455.964 409.38,458.435 407,458.5C408.118,457.28 414.756,450.607 415.5,451C418.671,452.674 411.216,456.276 414.5,457C417.675,454.006 419.113,449.78 421,446C421.08,445.839 424.361,444.688 422.5,443C420.94,443.563 421.124,445.887 421,446C417.666,449.059 413.752,451.39 412,446C413.908,444.869 416.93,442.499 417,440C421.52,439.42 428.174,435.934 431,432.5C431.071,432.414 429.352,431.378 430,430.5C431.523,428.438 437.853,417.202 439,422.5C439.292,423.85 430.919,429.146 433.5,431L445,417.5C443.771,414.224 442.985,420.678 441,415.5L448,411L446.5,415C448.433,414.295 448.628,411.515 449,411C454.047,403.998 459.689,394.354 463,388.5C468.706,378.411 465.583,376.706 479,371.5L469,373.5C468.439,372.692 477.029,358.18 478,356C478.124,355.722 477.877,355.279 478,355C480.225,349.977 485.799,339.793 487,335L495,332ZM488.5,339C487.435,338.496 487.171,344.114 488.5,343C489.331,342.303 489.291,339.374 488.5,339ZM489.5,347L489,348.5L489.5,349L491,347.5L489.5,347ZM480.5,368L479,369.5L479.5,370L481,369.5L480.5,368ZM472.5,379C472.084,379.089 468.647,382.469 467,382.5C468.724,385.522 475.212,379.9 475,379.5C474.473,378.776 473.257,378.839 472.5,379ZM467.5,395L466,396.5L466.5,397L468,396.5L467.5,395ZM454.5,408L454,409.5L454.5,410L456,408.5L454.5,408ZM454.5,413L454,414.5L454.5,415L456,413.5L454.5,413ZM449.5,419L449,420.5L449.5,421L451,419.5L449.5,419ZM438.5,432C437.63,432.972 437.797,437.99 438.5,438C438.887,435.964 440.566,433.19 438.5,432ZM425.5,446C425.112,445.873 420.312,451.508 421.5,453C422.477,452.559 427.509,446.66 425.5,446Z" style="fill:rgb(180,211,157);fill-rule:nonzero;"/>
            <path d="M263,333L275,358C267.599,362.798 260.933,369.274 253.5,374C252.213,371.54 243.649,354.579 244,353.5C244.611,351.621 248.001,352.198 248,351.5C248,351.139 241.689,351.033 242,347.5C242.249,345.791 260.387,335.015 263,333Z" style="fill:rgb(131,149,198);fill-rule:nonzero;"/>
            <path d="M371,359C367.667,358.359 363.822,355.109 360,355C373.495,347.634 387.13,340.648 401,334L371,359Z" style="fill:rgb(149,201,136);fill-rule:nonzero;"/>
            <path d="M446.5,334L447.5,334C449.474,333.842 449.474,335.158 447.5,335L446.5,334Z" style="fill:rgb(24,37,96);fill-rule:nonzero;"/>
            <path d="M427.5,336C429.999,335.652 428.581,337.981 426.5,338C425.486,337.486 427.328,336.024 427.5,336Z" style="fill:rgb(87,118,116);fill-rule:nonzero;"/>
            <path d="M305,339C299.924,342.158 295.04,345.733 290,349L290,348C291.783,344.446 294.944,343.051 298,341C299.392,340.066 302.359,339.072 304,338L305,339Z" style="fill:rgb(96,137,154);fill-rule:nonzero;"/>
            <path d="M446.5,338C446.658,338.003 448.16,340.698 447.5,341C444.171,342.522 444.845,337.97 446.5,338Z" style="fill:rgb(22,36,62);fill-rule:nonzero;"/>
            <path d="M488.5,339C489.291,339.374 489.331,342.303 488.5,343C487.171,344.114 487.435,338.496 488.5,339Z" style="fill:rgb(68,119,132);fill-rule:nonzero;"/>
            <path d="M424.5,341C427.639,342.27 419.775,347.135 419,345.5L424.5,341Z" style="fill:rgb(70,89,106);fill-rule:nonzero;"/>
            <path d="M400,344C393.13,349.583 386.473,354.598 379.5,360C376.779,362.108 380.297,362.322 378,364C369.704,366.389 362.095,372.304 355,377C340.399,386.104 325.481,394.64 311,404L304,388C304.976,387.381 305.985,386.638 307,386C324.232,375.168 342.125,364.756 360,355C363.822,355.109 367.667,358.359 371,359C381.96,361.109 390.357,348.626 400,344Z" style="fill:rgb(121,175,170);fill-rule:nonzero;"/>
            <path d="M426,346L425,349C424.628,348.751 422.899,349.583 423,348C424.677,346.409 425.866,346.121 426,346Z" style="fill:rgb(21,23,64);fill-rule:nonzero;"/>
            <path d="M489.5,347L491,347.5L489.5,349L489,348.5L489.5,347Z" style="fill:rgb(81,111,103);fill-rule:nonzero;"/>
            <path d="M425,349C430.324,352.568 419.839,357.133 417,359C415.901,358.158 414.886,356.423 414,356C415.617,354.3 417.337,352.664 419,351C419.324,350.676 419.697,350.314 420,350C420.575,352.22 421.668,349.437 422,349C422.551,348.273 422.699,348.285 423,348C422.899,349.583 424.628,348.751 425,349Z" style="fill:rgb(90,134,173);fill-rule:nonzero;"/>
            <path d="M236.5,349L240.5,358L240,350.5C241.729,352.797 252.052,373.147 252,374.5C251.465,388.36 231.866,352.624 236.5,349Z" style="fill:rgb(131,151,198);fill-rule:nonzero;"/>
            <path d="M422,349C421.668,349.437 420.575,352.22 420,350C420.46,349.524 420.132,348.456 422,349Z" style="fill:rgb(38,43,77);fill-rule:nonzero;"/>
            <path d="M419,351C417.337,352.664 415.617,354.3 414,356C413.331,355.68 412.156,358.143 411,356.5L419,351Z" style="fill:rgb(54,59,86);fill-rule:nonzero;"/>
            <path d="M337,366C326.781,371.801 317.091,378.978 307,385C302.883,387.457 298.193,389.521 294,392L289,377C292.651,375.207 299.212,369.735 304,367C311.839,362.522 319.228,357.445 327,353L337,366Z" style="fill:rgb(151,190,197);fill-rule:nonzero;"/>
            <path d="M478,355C477.877,355.279 478.124,355.722 478,356C473.019,355.833 476.147,350.818 478,355Z" style="fill:rgb(19,33,53);fill-rule:nonzero;"/>
            <path d="M285,354C291.891,362.477 284.959,360.217 284,361.5C283.521,362.141 288.224,374.628 288,377C286.388,377.699 285.726,379.585 283.5,379L274,361C277.519,358.464 281.44,356.406 285,354Z" style="fill:rgb(147,170,209);fill-rule:nonzero;"/>
            <path d="M434.5,359C437.769,367.909 423.324,373.371 416,376.5C412.151,371.086 431.19,362.331 434.5,359Z" style="fill:rgb(81,124,189);fill-rule:nonzero;"/>
            <path d="M288,377C288.283,376.877 288.735,377.13 289,377L294,392C290.771,393.909 274.728,405.821 273.5,406C270.612,406.421 265.027,398.1 265,397.5C264.878,394.745 282.953,384.191 285,380.5L264.5,395C263.079,392.634 253.879,377.557 254,376.5C254.144,375.243 271.437,362.847 274,361L283.5,379C285.726,379.585 286.388,377.699 288,377Z" style="fill:rgb(126,147,197);fill-rule:nonzero;"/>
            <path d="M398,375C399.176,373.427 400.618,371.334 402,370C402.686,369.338 404.827,367.122 405,367C405.6,366.577 415.584,361.483 416,362.5C414.095,368.123 417.122,373.803 410,375.5L410.5,370C406.206,379.426 410.826,380.878 398.5,383C394.431,379.968 400.048,379.78 400,378.5C399.973,377.78 395.736,378.802 398,375Z" style="fill:rgb(126,168,204);fill-rule:nonzero;"/>
            <path d="M378,364C376.899,364.804 376.134,365.905 376,366C369.952,370.31 361.087,373.205 355,377C362.095,372.304 369.704,366.389 378,364Z" style="fill:rgb(73,114,105);fill-rule:nonzero;"/>
            <path d="M469.5,365L471,365.5L469.5,367L469,366.5L469.5,365Z" style="fill:rgb(108,159,157);fill-rule:nonzero;"/>
            <path d="M363,385C359.617,386.019 355.432,384.988 353,388.5L361,388.5L355,395.5L358,396C357.22,396.703 355.79,398.731 356,400C355.728,400.135 352.196,400.031 350,401L313,423C313.001,420.093 305.651,413.645 304,411C320.6,399.199 338.01,388.245 355,377C361.087,373.205 369.952,370.31 376,366C373.439,373.008 368.655,380.343 363,385Z" style="fill:rgb(115,168,174);fill-rule:nonzero;"/>
            <path d="M405,367C404.827,367.122 402.686,369.338 402,370C396.376,370.196 361.653,388.256 362,390.5C362.26,392.183 365.313,388.7 365,391.5C363.458,393.492 359.578,394.579 358,396L355,395.5L361,388.5L353,388.5C355.432,384.988 359.617,386.019 363,385C375.015,381.383 391.678,372.693 404,366L405,367Z" style="fill:rgb(127,164,134);fill-rule:nonzero;"/>
            <path d="M480.5,368L481,369.5L479.5,370L479,369.5L480.5,368Z" style="fill:rgb(66,93,95);fill-rule:nonzero;"/>
            <path d="M402,370C400.618,371.334 399.176,373.427 398,375C394.772,379.317 395.242,387.013 386,388.5L391.5,379C388.177,379.92 385.971,384.653 384,386C374.566,392.45 365.499,395.279 356,400C355.79,398.731 357.22,396.703 358,396C359.578,394.579 363.458,393.492 365,391.5C365.313,388.7 362.26,392.183 362,390.5C361.653,388.256 396.376,370.196 402,370Z" style="fill:rgb(189,222,180);fill-rule:nonzero;"/>
            <path d="M464.5,374C464.849,373.763 466.701,373.842 467,374.5C467.755,376.159 461.287,376.183 464.5,374Z" style="fill:rgb(106,160,163);fill-rule:nonzero;"/>
            <path d="M425.5,375C431.053,379.222 416.306,389.493 416,390.5C415.947,390.672 418.064,393.332 418,393.5C417.031,396.033 406.531,402.091 405.5,400L414,393.5C410.389,392.312 407.887,392.372 405,394.5C405.045,387.174 412.623,389.516 407,382.5L425.5,375Z" style="fill:rgb(80,125,189);fill-rule:nonzero;"/>
            <path d="M457.5,377C460.157,381.252 447.504,385.089 445,387.5L457.5,377Z" style="fill:rgb(30,41,62);fill-rule:nonzero;"/>
            <path d="M251.5,378C254.011,377.805 266.719,399.029 259.5,399C258.265,398.995 245.902,378.436 251.5,378Z" style="fill:rgb(126,145,197);fill-rule:nonzero;"/>
            <path d="M472.5,379C473.257,378.839 474.473,378.776 475,379.5C475.212,379.9 468.724,385.522 467,382.5C468.647,382.469 472.084,379.089 472.5,379Z" style="fill:rgb(70,106,135);fill-rule:nonzero;"/>
            <path d="M363,423C363.339,418.761 359.672,417.08 357,415C360.283,412.389 363.458,409.783 367,407.5C366.259,406.51 358.389,409.742 358,410C355.053,411.953 351.272,417.389 346.5,420C346.038,420.253 346.339,417.431 344.5,418C343.666,418.258 341.602,432.054 333.5,420L337,426.5L333.5,429L329.5,423L332,429.5L321.5,438C320.624,435.452 314.234,427.838 315,425.5C315.665,423.47 346.657,402.475 350,401C352.196,400.031 355.728,400.135 356,400C365.499,395.279 374.566,392.45 384,386C390.736,393.506 370.343,407.925 367,398.5C368.631,415.129 378.37,413.309 363,423Z" style="fill:rgb(115,165,181);fill-rule:nonzero;"/>
            <path d="M393,388C393.101,387.926 392.634,384.649 395,386.5C395.481,388.578 393.07,387.888 393,388Z" style="fill:rgb(110,163,172);fill-rule:nonzero;"/>
            <path d="M442.5,386C443.06,386.021 443.744,385.788 444,386.5C438.569,393.62 437.29,385.8 442.5,386Z" style="fill:rgb(23,32,51);fill-rule:nonzero;"/>
            <path d="M311,404C308.374,405.698 305.602,407.297 303,409C301.905,405.398 298.018,403.605 296,401C295.359,400.172 294.072,396.215 293,395C296.627,392.598 300.329,390.327 304,388L311,404Z" style="fill:rgb(139,185,199);fill-rule:nonzero;"/>
            <path d="M393,388C392.123,389.403 391.582,392.994 389,391.5C390.056,389.591 391.656,388.991 393,388Z" style="fill:rgb(121,175,184);fill-rule:nonzero;"/>
            <path d="M400.5,389L403,394.5L396.5,402L400.5,389Z" style="fill:rgb(115,157,195);fill-rule:nonzero;"/>
            <path d="M396.5,391C398.222,390.234 398.616,393.504 397.5,394C395.778,394.766 395.384,391.496 396.5,391Z" style="fill:rgb(116,165,177);fill-rule:nonzero;"/>
            <path d="M392.5,392C396.729,392.557 389.909,400.025 390,400.5C390.186,401.474 392.762,400.519 393,401.5C394.707,408.527 379.571,410.878 374.5,416C362.148,401.712 383.648,399.714 392.5,392Z" style="fill:rgb(115,165,182);fill-rule:nonzero;"/>
            <path d="M443.5,392C446.868,392.174 443.456,394.568 444,395.5C445.626,398.289 448.407,393.905 449,397.5C441.226,397.915 438.497,406.205 435.5,412C432.447,403.237 441.799,401.099 443.5,392Z" style="fill:rgb(29,47,76);fill-rule:nonzero;"/>
            <path d="M426.5,393C428.406,392.833 427.636,396.946 425.5,396C424.112,395.385 425.879,393.054 426.5,393Z" style="fill:rgb(24,41,73);fill-rule:nonzero;"/>
            <path d="M296,401C288.986,404.597 284.572,413.977 282,421C281.071,420.29 272.884,409.261 273,408.5C278.889,402.856 286.305,399.433 293,395C294.072,396.215 295.359,400.172 296,401Z" style="fill:rgb(121,144,196);fill-rule:nonzero;"/>
            <path d="M467.5,395L468,396.5L466.5,397L466,396.5L467.5,395Z" style="fill:rgb(57,80,72);fill-rule:nonzero;"/>
            <path d="M263.5,398C264.24,398.134 272.929,409.874 267.5,410C265.839,410.039 256.333,396.699 263.5,398Z" style="fill:rgb(116,141,192);fill-rule:nonzero;"/>
            <path d="M437.5,398C439.968,397.747 437.679,400.966 437.5,401C436.47,401.198 435.6,398.194 437.5,398Z" style="fill:rgb(26,37,60);fill-rule:nonzero;"/>
            <path d="M296,401C298.018,403.605 301.905,405.398 303,409C297.637,412.51 286.631,424.539 282,421C284.572,413.977 288.986,404.597 296,401Z" style="fill:rgb(107,133,188);fill-rule:nonzero;"/>
            <path d="M430.5,402C431.377,404.108 417.427,412.226 417,411.5L430.5,402Z" style="fill:rgb(27,41,68);fill-rule:nonzero;"/>
            <path d="M475,406C453.774,438.177 426.412,472.351 387,482C387.113,477.916 378.205,481.38 377,483C372.883,483.287 370.064,483.115 366,483C366.183,481.069 373.759,478.094 374.5,478C375.186,477.913 374.818,480.103 375.5,480C385.983,478.415 392.71,476.086 402,471C415.883,463.4 431.037,448.066 442,436.5C446.196,432.073 466.634,404.955 468.5,404C473.344,401.52 470.683,405.688 475,406Z" style="fill:rgb(110,162,173);fill-rule:nonzero;"/>
            <path d="M454.5,408L456,408.5L454.5,410L454,409.5L454.5,408Z" style="fill:rgb(44,52,81);fill-rule:nonzero;"/>
            <path d="M393,417C392.759,417.066 390.095,419.477 389,420C384.878,421.967 357.308,437.509 355.5,437C344.65,433.947 369.151,419.941 370.5,420C373.369,420.125 374.248,424.127 374.5,424C370.186,417.63 389.97,407.603 393,409.5L393,417Z" style="fill:rgb(105,154,183);fill-rule:nonzero;"/>
            <path d="M430.5,409L432,410.5L428.5,414L430.5,409Z" style="fill:rgb(23,30,48);fill-rule:nonzero;"/>
            <path d="M322,459C330.851,465.609 334.912,468.03 345,472C346.443,472.568 345.901,474.414 348,475C349.162,475.324 353.88,475.707 356,476L352,478.5L364.5,480C365.998,481.965 363.547,481.982 362,483C357.609,485.888 342.191,481.086 336.5,479C305.783,467.741 282.554,439.228 265,413C269.493,403.944 281.794,421.817 282,423.5C282.347,426.341 277.072,426.455 278.5,429C279.339,428.514 283.21,425.967 283.5,426C285.222,426.193 304.868,447.474 307.5,451C309.828,447.262 317.228,459.088 322,459Z" style="fill:rgb(123,148,196);fill-rule:nonzero;"/>
            <path d="M358,410L360,410.5L358.5,412L358,410Z" style="fill:rgb(114,165,180);fill-rule:nonzero;"/>
            <path d="M313,423C312.999,425.239 298.566,437.023 297.5,437C295.115,436.949 287.605,426.234 285,424.5C285.006,423.335 301.613,412.697 304,411C305.651,413.645 313.001,420.093 313,423Z" style="fill:rgb(104,131,187);fill-rule:nonzero;"/>
            <path d="M448,411L449,411C448.628,411.515 448.433,414.295 446.5,415L448,411Z" style="fill:rgb(101,133,119);fill-rule:nonzero;"/>
            <path d="M454.5,413L456,413.5L454.5,415L454,414.5L454.5,413Z" style="fill:rgb(49,83,81);fill-rule:nonzero;"/>
            <path d="M363,423C359.607,425.14 355.917,426.881 352.5,429C341.927,419.612 350.631,420.067 357,415C359.672,417.08 363.339,418.761 363,423Z" style="fill:rgb(113,162,182);fill-rule:nonzero;"/>
            <path d="M378,430C381.673,427.108 387.051,424.37 389,420C390.095,419.477 392.759,417.066 393,417C393.194,416.947 398.625,417.098 396.5,419C390.355,422.8 384.291,426.44 378,430Z" style="fill:rgb(23,40,68);fill-rule:nonzero;"/>
            <path d="M449.5,419L451,419.5L449.5,421L449,420.5L449.5,419Z" style="fill:rgb(74,104,64);fill-rule:nonzero;"/>
            <path d="M428.5,420C429.746,419.785 431.738,420.033 431,421.5C425.687,424.007 420.87,431.833 417.5,437C414.758,436.419 427.473,420.178 428.5,420Z" style="fill:rgb(31,40,59);fill-rule:nonzero;"/>
            <path d="M345.5,422C346.207,422.073 350.193,429.724 350,430.5C348.617,436.058 336.774,432.88 338,427.5C338.103,427.047 345.037,421.952 345.5,422Z" style="fill:rgb(110,160,181);fill-rule:nonzero;"/>
            <path d="M404.5,426C404.611,425.987 406.52,427.459 405.5,428C402.926,429.365 402.613,426.214 404.5,426Z" style="fill:rgb(28,50,90);fill-rule:nonzero;"/>
            <path d="M310,448C306.403,444.881 301.936,442.535 299,438.5L312.5,427C317.194,433.316 323.736,446.958 310.5,440C315.433,444.027 309.653,447.657 310,448Z" style="fill:rgb(102,132,185);fill-rule:nonzero;"/>
            <path d="M336.5,429C337.141,429.003 345.321,437.722 338.5,438C334.792,437.837 333.154,428.985 336.5,429Z" style="fill:rgb(107,161,180);fill-rule:nonzero;"/>
            <path d="M391.5,429C393.55,428.74 391.903,434.963 390.5,435C387.998,435.066 389.923,429.2 391.5,429Z" style="fill:rgb(22,39,64);fill-rule:nonzero;"/>
            <path d="M378,430C377.238,430.6 376.079,434.208 374,432.5C374.927,430.492 377.008,430.561 378,430Z" style="fill:rgb(23,40,68);fill-rule:nonzero;"/>
            <path d="M331.5,432C335.97,432.369 335.49,441.703 331.5,442C329.558,442.144 324.355,431.41 331.5,432Z" style="fill:rgb(101,155,173);fill-rule:nonzero;"/>
            <path d="M350.5,432C357.694,433.292 345.87,445.537 343,436.5C344.278,436.011 350.07,431.923 350.5,432Z" style="fill:rgb(105,154,177);fill-rule:nonzero;"/>
            <path d="M438.5,432C440.566,433.19 438.887,435.964 438.5,438C437.797,437.99 437.63,432.972 438.5,432Z" style="fill:rgb(75,101,99);fill-rule:nonzero;"/>
            <path d="M392,441C390.988,444.743 393.038,453.081 386,452C392.999,445.135 386.222,436.335 396,433.5C394.053,436.918 393.137,436.796 392,441Z" style="fill:rgb(29,47,73);fill-rule:nonzero;"/>
            <path d="M357.5,437C358.419,436.683 361.427,436.536 361,438.5L356.5,439C355.523,438.499 357.184,437.109 357.5,437Z" style="fill:rgb(107,169,205);fill-rule:nonzero;"/>
            <path d="M417,440C416.93,442.499 413.908,444.869 412,446C410.816,446.702 408.345,448.451 407,447.5L416.5,438L417,440Z" style="fill:rgb(27,34,62);fill-rule:nonzero;"/>
            <path d="M345,472C334.912,468.03 330.851,465.609 322,459C319.395,457.054 313.12,450.705 310,448C316.502,444.02 316.905,447.811 320.5,441C321.468,445.841 328.026,450.065 330,453.5C330.138,453.739 328.743,458.314 330.5,459C330.847,459.135 335.754,455.908 336.5,456C337.572,456.132 352.577,470.881 345,472Z" style="fill:rgb(94,123,179);fill-rule:nonzero;"/>
            <path d="M381,459L378,456.5C380.357,454.334 382.093,455.401 385,453C385.063,452.948 385.668,452.325 386,452C393.038,453.081 390.988,444.743 392,441C395.251,440.198 398.014,444.716 397,446.5C395.465,449.201 394.238,445.986 393,447.5C392.8,447.745 395.117,453.206 395,453.5C394.693,454.269 382.779,458.794 381,459Z" style="fill:rgb(40,78,120);fill-rule:nonzero;"/>
            <path d="M335.5,442C335.883,442.035 338.176,444.386 338,445.5C337.448,448.991 332.964,442.62 332.5,447C328.612,446.726 335.14,441.967 335.5,442Z" style="fill:rgb(104,160,180);fill-rule:nonzero;"/>
            <path d="M341.5,442L341.5,446L345,443.5L342.5,450C340.777,447.538 336.899,443.667 341.5,442Z" style="fill:rgb(99,155,182);fill-rule:nonzero;"/>
            <path d="M421,446C421.124,445.887 420.94,443.563 422.5,443C424.361,444.688 421.08,445.839 421,446Z" style="fill:rgb(47,76,79);fill-rule:nonzero;"/>
            <path d="M425.5,446C427.509,446.66 422.477,452.559 421.5,453C420.312,451.508 425.112,445.873 425.5,446Z" style="fill:rgb(65,72,85);fill-rule:nonzero;"/>
            <path d="M385,453C382.093,455.401 380.357,454.334 378,456.5L381,459C380.481,459.06 377.911,458.011 376.5,459C372.837,456.779 380.8,448.743 382.5,447C386.692,448.466 379.044,451.033 379,453.5L385,453Z" style="fill:rgb(24,39,63);fill-rule:nonzero;"/>
            <path d="M410,453C407.754,453.891 407.35,454.42 408.5,451C409.263,451.541 408.73,453.302 410,453Z" style="fill:rgb(126,135,121);fill-rule:nonzero;"/>
            <path d="M410,453C410.122,452.971 409.595,449.65 412,451.5C411.412,452.233 410.896,452.644 410,453Z" style="fill:rgb(157,177,150);fill-rule:nonzero;"/>
            <path d="M405.5,453L405.5,458L401.5,459L405.5,453Z" style="fill:rgb(120,149,154);fill-rule:nonzero;"/>
            <path d="M350.5,455C351.738,456.836 350.891,459.132 349.5,457C348.792,455.914 349.888,455.793 350.5,455Z" style="fill:rgb(31,30,77);fill-rule:nonzero;"/>
            <path d="M390.5,461C392.999,460.652 391.581,462.981 389.5,463C388.486,462.486 390.328,461.024 390.5,461Z" style="fill:rgb(27,24,45);fill-rule:nonzero;"/>
            <path d="M351,467L350,467C350.011,466.875 347.492,467.587 348,465.5C350.585,462.062 351.922,462.766 351,467Z" style="fill:rgb(19,23,41);fill-rule:nonzero;"/>
            <path d="M368,475C363.935,476.865 360.302,476.595 356,476C353.88,475.707 349.162,475.324 348,475C349.706,471.718 349.69,470.577 350,467L351,467C355.902,469.94 363.197,466.33 367.5,472C370.499,465.694 371.131,471.857 368,475Z" style="fill:rgb(97,122,173);fill-rule:nonzero;"/>
            <path d="M402,471C392.71,476.086 385.983,478.415 375.5,480C374.818,480.103 375.186,477.913 374.5,478C373.759,478.094 366.183,481.069 366,483C364.94,482.97 364.306,485.064 362,483C363.547,481.982 365.998,481.965 364.5,480L352,478.5L356,476C360.302,476.595 363.935,476.865 368,475L368.5,478C369.142,478.112 378.447,471.47 379.5,471C381.126,470.273 382.644,472.543 384,472C381.928,481.426 402.131,462.068 402,471Z" style="fill:rgb(115,156,182);fill-rule:nonzero;"/>
            <path d="M387,482C381.141,483.434 382.272,482.632 377,483C378.205,481.38 387.113,477.916 387,482Z" style="fill:rgb(107,154,183);fill-rule:nonzero;"/>
            <path d="M386,511C383.068,515.2 378.065,519.424 373,517C383.075,511.907 384.308,512.452 375.5,503C371.465,502.156 373.838,506.121 372.5,507C371.886,507.403 363.342,499.569 366.5,512L355,506C355.208,505.629 354.807,504.188 355,504C358.335,503.254 364.117,503.678 367,503C368.223,502.712 368.407,502.112 370,502.5C370.617,499.172 368.797,500.491 368,500C365.437,498.423 360.973,498.843 361,495C364.064,494.86 364.024,489.351 366.5,498L368.5,493C371.751,499.614 374.933,493.55 377.5,497C378.413,496.647 377.805,495.423 378,495C379.303,492.17 377.147,488.445 379,487C387.223,493.14 382.911,496.855 384,503.5C384.117,504.213 386.55,505.938 386,511ZM362.5,506C361.296,506.436 362.036,508.643 363.5,508C364.699,507.473 364.018,505.45 362.5,506Z" style="fill:rgb(39,43,45);fill-rule:nonzero;"/>
            <path d="M378,495C377.805,495.423 378.413,496.647 377.5,497C374.933,493.55 371.751,499.614 368.5,493L366.5,498C364.024,489.351 364.064,494.86 361,495C358.89,495.097 357.287,496.446 356,494.5C363.586,489.188 370.18,486.778 378,495Z" style="fill:rgb(209,184,139);fill-rule:nonzero;"/>
            <path d="M367,503L366,501C366.96,500.738 367.162,500.018 368,500C368.797,500.491 370.617,499.172 370,502.5C368.407,502.112 368.223,502.712 367,503Z" style="fill:rgb(197,159,108);fill-rule:nonzero;"/>
            <path d="M366,501L367,503C364.117,503.678 358.335,503.254 355,504C358.129,500.945 361.603,502.199 366,501Z" style="fill:rgb(114,97,81);fill-rule:nonzero;"/>
            <path d="M373,517C372.281,517.363 371.888,517.492 371,518C370.357,518.072 369.516,517.855 369,518C362.891,519.715 363.838,518.803 359,516L357,514C355.231,511.401 355.097,511.019 354,508C354.392,505.855 354.417,507.037 355,506L366.5,512C363.342,499.569 371.886,507.403 372.5,507C373.838,506.121 371.465,502.156 375.5,503C384.308,512.452 383.075,511.907 373,517Z" style="fill:rgb(243,237,202);fill-rule:nonzero;"/>
            <path d="M362.5,506C364.018,505.45 364.699,507.473 363.5,508C362.036,508.643 361.296,506.436 362.5,506Z" style="fill:rgb(203,188,159);fill-rule:nonzero;"/>
            <path d="M357,514C357.358,514.526 355.938,515.435 356,515.5C356.968,516.519 358.422,515.665 359,516C363.838,518.803 362.891,519.715 369,518C369.966,520.927 370.812,518.108 371,518C371.888,517.492 372.281,517.363 373,517C378.065,519.424 383.068,515.2 386,511C384.798,522.069 381.282,517.206 374,520C369.955,521.552 373.069,521.42 373,522C372.928,522.606 373.347,523.284 373,526L372,526C372.165,523.659 368.735,522.882 367,522C366.283,521.636 365.238,517.469 363,522C360.952,520.86 355.584,516.782 354,515C350.676,511.315 353.217,512.283 354,508C355.097,511.019 355.231,511.401 357,514Z" style="fill:rgb(100,96,84);fill-rule:nonzero;"/>
            <path d="M359,516C358.422,515.665 356.968,516.519 356,515.5C355.938,515.435 357.358,514.526 357,514L359,516Z" style="fill:rgb(184,170,128);fill-rule:nonzero;"/>
            <path d="M371,518C370.812,518.108 369.966,520.927 369,518C369.516,517.855 370.357,518.072 371,518Z" style="fill:rgb(30,26,37);fill-rule:nonzero;"/>
            <path d="M367,522C364.959,523.392 364.918,523.067 363,522C365.238,517.469 366.283,521.636 367,522Z" style="fill:rgb(183,184,162);fill-rule:nonzero;"/>
            <path d="M374,520L373,522C373.069,521.42 369.955,521.552 374,520Z" style="fill:rgb(16,20,31);fill-rule:nonzero;"/>
            <path d="M471,170C488.362,188.798 503.147,210.691 509,236C500.204,240.74 516.556,260.412 504,262C503.746,258.688 502.311,255.794 502,252.5L500,258C498.909,255.314 499.139,253.644 498.5,251C497.537,255.684 499.272,260.811 493,262C493.067,258.167 493.113,254.86 493,251L493,247C493.004,244.766 493.352,242.311 493,240C493.472,235.653 489.298,222.03 497,227C497.763,229.507 497.624,232.505 499.5,234C501.602,233.493 494.52,215.198 494,213C492.104,204.977 495.142,205.951 495,205.5C494.527,204.003 491.335,205.99 490,206C492.66,201.817 491.68,203.019 490,199C489.96,198.905 492.138,198.746 490.5,197C488.416,196.484 489.12,199.033 489,199C482.338,197.15 485.35,196.867 484,193C483.97,192.915 485.825,192.731 485,191.5C484.318,190.483 482.875,191.269 482,191C478.805,190.019 477.327,189.023 477,189L479,186.5L475,186L474,186C473.92,185.854 472.429,186.423 472,185.5C471.237,183.859 473.448,182.423 473,181.5C472.016,179.471 469.494,179.538 468,175C467.65,173.938 468.328,172.427 467,171C468.263,170.613 469.68,170.169 471,170Z" style="fill:rgb(169,205,165);fill-rule:nonzero;"/>
            <path d="M493,213C494.767,216.389 495.799,223.055 497,227C489.298,222.03 493.472,235.653 493,240C492.926,240.679 491.909,247.246 490,246.5C490.018,242.354 490.996,237.6 490,233.5C489.91,233.131 487.122,232.296 487,232L487,229C486.842,228.074 487.422,226.319 486.5,226C479.741,231.853 485.431,212.67 482,209C490.083,208.643 489.063,205.448 493,213Z" style="fill:rgb(177,205,139);fill-rule:nonzero;"/>
            <path d="M497,227C495.799,223.055 494.767,216.389 493,213L494,213C494.52,215.198 501.602,233.493 499.5,234C497.624,232.505 497.763,229.507 497,227Z" style="fill:rgb(85,113,122);fill-rule:nonzero;"/>
            <path d="M504,262C504.136,263.772 504.664,267.911 503,269C502.088,261.94 502.033,263.005 500,258L502,252.5C502.311,255.794 503.746,258.688 504,262Z" style="fill:rgb(114,136,111);fill-rule:nonzero;"/>
            <path d="M503,285C502.956,284.816 500.392,283.848 503,283C502.839,283.442 503.083,284.367 503,285Z" style="fill:rgb(64,89,83);fill-rule:nonzero;"/>
            <path d="M440,155C446.024,160.605 449.691,168.632 459,169.5L455,172C454.65,171.655 449.437,166.591 449,169.5L457.5,180C459.934,180.367 458.332,176.866 458,176C465.776,175.516 462.707,181.116 463,181.5C464.029,182.847 469.777,184.494 470,187.5C470.032,187.935 468.016,189.841 468,190C467.987,190.124 466.076,190.718 466,191.5C465.953,191.989 468.871,197.584 468,200.5C471.357,200.292 470.633,196.013 470,194C474.107,193.791 468.373,192.32 473,190C475.061,193.23 471.584,195.917 472,197.5C472.942,201.081 477.829,201.125 478,201.5C478.188,201.912 476.454,208.242 479,210.5C481.166,206.803 480.063,209.086 482,209C485.431,212.67 479.741,231.853 486.5,226C487.422,226.319 486.842,228.074 487,229C487.025,229.148 485.513,228.393 487,232C487.122,232.296 489.91,233.131 490,233.5C490.996,237.6 490.018,242.354 490,246.5C491.909,247.246 492.926,240.679 493,240C493.352,242.311 493.004,244.766 493,247C492.998,248.324 492.961,249.678 493,251C493.113,254.86 493.067,258.167 493,262C492.981,263.062 494.304,265.586 494,268.5C493.791,270.498 487.991,275.249 494,273.5C495.724,278.052 491.841,307.807 493,310.5C493.765,312.276 495.779,311.691 497,312.5C490.211,313.11 492.968,318.88 491,320.5C489.683,321.585 490.033,317.824 488.5,319C486.19,320.772 487.659,332.368 487,335C485.799,339.793 480.225,349.977 478,355C476.147,350.818 473.019,355.833 478,356C477.029,358.18 468.439,372.692 469,373.5L479,371.5C465.583,376.706 468.706,378.411 463,388.5C459.689,394.354 454.047,403.998 449,411L448,411L441,415.5C442.985,420.678 443.771,414.224 445,417.5L433.5,431C430.919,429.146 439.292,423.85 439,422.5C437.853,417.202 431.523,428.438 430,430.5C429.352,431.378 431.071,432.414 431,432.5C428.174,435.934 421.52,439.42 417,440L416.5,438L407,447.5C408.345,448.451 410.816,446.702 412,446C413.752,451.39 417.666,449.059 421,446C419.113,449.78 417.675,454.006 414.5,457C411.216,456.276 418.671,452.674 415.5,451C414.756,450.607 408.118,457.28 407,458.5C409.38,458.435 415.416,455.964 410.5,460C406.273,463.47 404.834,459.853 404.5,460C402.317,460.958 392.311,470.225 391,467.5L397.5,461C390.931,462.938 388.991,470 384,472C382.644,472.543 381.126,470.273 379.5,471C378.447,471.47 369.142,478.112 368.5,478L368,475C371.131,471.857 370.499,465.694 367.5,472C363.197,466.33 355.902,469.94 351,467C351.922,462.766 350.585,462.062 348,465.5C347.492,467.587 350.011,466.875 350,467C349.69,470.577 349.706,471.718 348,475C345.901,474.414 346.443,472.568 345,472C352.577,470.881 337.572,456.132 336.5,456C335.754,455.908 330.847,459.135 330.5,459C328.743,458.314 330.138,453.739 330,453.5C328.026,450.065 321.468,445.841 320.5,441C316.905,447.811 316.502,444.02 310,448C309.653,447.657 315.433,444.027 310.5,440C323.736,446.958 317.194,433.316 312.5,427L299,438.5C301.936,442.535 306.403,444.881 310,448C313.12,450.705 319.395,457.054 322,459C317.228,459.088 309.828,447.262 307.5,451C304.868,447.474 285.222,426.193 283.5,426C283.21,425.967 279.339,428.514 278.5,429C277.072,426.455 282.347,426.341 282,423.5C281.794,421.817 269.493,403.944 265,413C256.183,399.826 245.571,383.943 239,368.5C234.632,358.234 231.248,344.972 229,334C229.893,336.189 237.248,354.158 240,346.5L225,314L222,315C221.89,314.026 222.103,312.976 222,312C221.972,311.732 224.058,307.679 224,307C228.548,309.113 226.003,312.58 230,313C230.099,313.01 229.833,314.68 232,313C231.916,314.775 234.024,323.685 235.5,324L254,308C254.431,309.74 253.874,309.563 254,310C251.391,312.044 235.266,324.933 235,326.5C234.676,328.406 240.622,341.916 241.5,345C243.294,345.752 267.267,326.55 271,324C272.578,322.922 273.703,321.288 275.5,321C276.139,321.576 274.399,323.561 274,324C272.651,325.485 265.158,331.336 263,333C260.387,335.015 242.249,345.791 242,347.5C241.689,351.033 248,351.139 248,351.5C248.001,352.198 244.611,351.621 244,353.5C243.649,354.579 252.213,371.54 253.5,374C260.933,369.274 267.599,362.798 275,358C278.185,355.935 283.373,353.718 286,352C285.898,352.422 285.093,353.937 285,354C281.44,356.406 277.519,358.464 274,361C271.437,362.847 254.144,375.243 254,376.5C253.879,377.557 263.079,392.634 264.5,395L285,380.5C282.953,384.191 264.878,394.745 265,397.5C265.027,398.1 270.612,406.421 273.5,406C274.728,405.821 290.771,393.909 294,392C298.193,389.521 302.883,387.457 307,385L307,386C305.985,386.638 304.976,387.381 304,388C300.329,390.327 296.627,392.598 293,395C286.305,399.433 278.889,402.856 273,408.5C272.884,409.261 281.071,420.29 282,421C286.631,424.539 297.637,412.51 303,409C305.602,407.297 308.374,405.698 311,404C325.481,394.64 340.399,386.104 355,377C338.01,388.245 320.6,399.199 304,411C301.613,412.697 285.006,423.335 285,424.5C287.605,426.234 295.115,436.949 297.5,437C298.566,437.023 312.999,425.239 313,423L350,401C346.657,402.475 315.665,423.47 315,425.5C314.234,427.838 320.624,435.452 321.5,438L332,429.5L329.5,423L333.5,429L337,426.5L333.5,420C341.602,432.054 343.666,418.258 344.5,418C346.339,417.431 346.038,420.253 346.5,420C351.272,417.389 355.053,411.953 358,410L358.5,412L360,410.5L358,410C358.389,409.742 366.259,406.51 367,407.5C363.458,409.783 360.283,412.389 357,415C350.631,420.067 341.927,419.612 352.5,429C355.917,426.881 359.607,425.14 363,423C378.37,413.309 368.631,415.129 367,398.5C370.343,407.925 390.736,393.506 384,386C385.971,384.653 388.177,379.92 391.5,379L386,388.5C395.242,387.013 394.772,379.317 398,375C395.736,378.802 399.973,377.78 400,378.5C400.048,379.78 394.431,379.968 398.5,383C410.826,380.878 406.206,379.426 410.5,370L410,375.5C417.122,373.803 414.095,368.123 416,362.5C415.584,361.483 405.6,366.577 405,367L404,366C408.121,363.761 413.134,361.542 417,359C419.839,357.133 430.324,352.568 425,349L426,346C429.042,343.243 431.803,339.65 435,337C433.861,339.268 433.102,341.872 431.5,344C434.738,346.032 434.361,341.751 436.5,341C438.186,340.408 439.483,342.887 442.5,341C447.843,337.658 442.052,334.935 442,334.5C441.607,331.223 458.494,333.832 452.5,325C449.999,327.541 449.98,325.791 449,326C450.15,324.743 448.066,324.097 448,324C444.836,319.334 442.986,325.045 447,326C447.482,326.115 448.932,326.074 449,326C448.56,326.094 444.871,329.792 441,328C441.991,326.63 444.773,325.459 443.5,323L428.5,331C427.404,327.353 437.62,324.519 440.5,323C442.136,322.137 443.198,319.15 443.5,319C443.627,318.937 445.373,321.062 445.5,321C448.437,319.553 451.014,317.36 454,316C457.143,314.569 458.09,315.771 461,313.5L453,314C454.386,310.004 459.081,312.771 458.5,309C453.233,308.029 448.184,316.026 447.5,316C446.987,315.981 445.722,311.877 439,314.5C438.87,314.029 445.129,311.253 446,311C446.186,310.946 447.732,314.078 448,310C453.713,307.894 449.773,307.136 451,306C451.281,305.74 451.716,305.295 452,305C450.328,313.272 468.644,304.3 458,303.5L463,300.5L454,300.5L460.5,297L459.5,295L452,298C451.979,296.069 453.024,295.773 453,295L465,291.5L457,287.5L460.5,285C457.335,285.873 453.895,287.555 451,289C459.309,281.614 459.959,285.286 463,275C463.65,272.802 465.951,272.994 466,272.5C466.611,266.294 456.554,272.606 454.5,273C451.782,273.521 452.132,271.973 452,272C454.804,260.585 447.531,258.231 462,256C462.063,256.686 461.907,257.964 462,258C452.756,258.791 456.177,262.724 454,269.5C458.651,273.213 462.06,265.329 462.5,265C462.848,264.74 464.736,266.776 467,264C465.733,268.129 474.408,263.164 471.5,262L468,263C468.95,258.593 465.706,257.683 462,258C462.453,258.173 467.707,252.655 470,252.5C466.898,250.218 467.237,251.993 465,253L464,248C465.881,246.928 467.702,247.277 469,245.5C467.415,243.955 466.162,245.756 465,246C466.283,238.827 452.897,245.844 463,239.5C456.791,234.924 453.291,236.265 456,245C455.358,245.074 454.51,244.853 454,245C453.949,244.346 454.069,243.65 454,243C453.874,241.805 452.285,232.952 452,232.5C450.359,229.891 448.162,233.323 447,231.5C445.921,229.808 449.062,230.109 449,230L452,225.5L447,225.5C453.207,223.851 451.084,210.818 449,207.5C448.275,206.345 447.687,208.418 447,208C446.042,207.417 444.529,205.902 444,206L446,196C453.27,197.001 447.767,186.574 446,185C445.882,184.895 443.846,184.84 443,184C443.857,182.306 444.92,183.173 445,183C447.876,176.794 444.644,180.544 444,179C443.212,177.11 442.831,174.967 442,173C441.908,172.781 444.342,168.066 441,170L433,169.5L440,167.5C436.77,163.039 433.868,165.256 431,163.5C431.227,162.687 439.133,161.669 431,159L431,158C432.88,158.591 434.49,158.534 436.5,160C437.082,159.701 435.977,155.343 436,154L437,154C437.753,156.31 438.534,153.636 440,155ZM439.5,164L440.5,165C442.474,165.158 442.474,163.842 440.5,164L439.5,164ZM451.5,187L451.5,189L452.5,189L452.5,188L451.5,187ZM446.5,199L446,205.5C452.628,209.207 449.633,196.361 446.5,199ZM472.5,201C470.514,201.476 471.694,215.785 474.5,217C475.289,215.232 474.796,200.449 472.5,201ZM453.5,202C452.774,202.123 455.63,212.957 455.5,214C456.599,211.767 457.43,201.336 453.5,202ZM464.5,206C463.888,206.793 462.792,206.914 463.5,208C464.891,210.132 465.738,207.836 464.5,206ZM455,219L457,219.5C456.921,216.335 455.102,219.014 455,219C453.403,218.781 454.344,216.277 453,217.5L454.5,223L455,219ZM478.5,218C478.395,218.015 476.957,219.403 477,219.5C478.174,222.151 482.255,217.469 478.5,218ZM458.5,223C456.712,224.364 454.849,224.28 456.5,227L460,224.5L458.5,223ZM454.5,224C450.507,236.006 455.305,240.009 466,232.5C462.96,225.101 455.153,225.854 458.5,234C454.307,231.9 455.435,228.174 454.5,224ZM487.5,234C486.223,234.072 487.432,239.22 488,235.5C488.174,234.876 487.988,233.973 487.5,234ZM480.5,240C479.2,248.203 473.407,250.033 475.5,259C477.353,259.965 482.337,240.283 480.5,240ZM486.5,246C485.656,246.793 485.717,248.384 486.5,249C487.058,247.596 488.975,245.777 486.5,246ZM468.5,255L467,256.5L467.5,257L469,256.5L468.5,255ZM465.5,268C464.48,268.541 466.389,270.013 466.5,270C468.387,269.786 468.074,266.635 465.5,268ZM478.5,274C478.003,273.97 474.061,278.5 475.5,280C477.921,280.093 482.597,274.249 478.5,274ZM487.5,286C486.656,286.793 486.717,288.384 487.5,289C488.058,287.596 489.975,285.777 487.5,286ZM481.5,315C479.613,315.214 479.926,318.365 482.5,317C483.52,316.459 481.611,314.987 481.5,315ZM446.5,334L447.5,335C449.474,335.158 449.474,333.842 447.5,334L446.5,334ZM446.5,338C444.845,337.97 444.171,342.522 447.5,341C448.16,340.698 446.658,338.003 446.5,338ZM236.5,349C231.866,352.624 251.465,388.36 252,374.5C252.052,373.147 241.729,352.797 240,350.5L240.5,358L236.5,349ZM434.5,359C431.19,362.331 412.151,371.086 416,376.5C423.324,373.371 437.769,367.909 434.5,359ZM469.5,365L469,366.5L469.5,367L471,365.5L469.5,365ZM464.5,374C461.287,376.183 467.755,376.159 467,374.5C466.701,373.842 464.849,373.763 464.5,374ZM425.5,375L407,382.5C412.623,389.516 405.045,387.174 405,394.5C407.887,392.372 410.389,392.312 414,393.5L405.5,400C406.531,402.091 417.031,396.033 418,393.5C418.064,393.332 415.947,390.672 416,390.5C416.306,389.493 431.053,379.222 425.5,375ZM457.5,377L445,387.5C447.504,385.089 460.157,381.252 457.5,377ZM251.5,378C245.902,378.436 258.265,398.995 259.5,399C266.719,399.029 254.011,377.805 251.5,378ZM393,388C391.656,388.991 390.056,389.591 389,391.5C391.582,392.994 392.123,389.403 393,388C393.07,387.888 395.481,388.578 395,386.5C392.634,384.649 393.101,387.926 393,388ZM442.5,386C437.29,385.8 438.569,393.62 444,386.5C443.744,385.788 443.06,386.021 442.5,386ZM400.5,389L396.5,402L403,394.5L400.5,389ZM396.5,391C395.384,391.496 395.778,394.766 397.5,394C398.616,393.504 398.222,390.234 396.5,391ZM392.5,392C383.648,399.714 362.148,401.712 374.5,416C379.571,410.878 394.707,408.527 393,401.5C392.762,400.519 390.186,401.474 390,400.5C389.909,400.025 396.729,392.557 392.5,392ZM443.5,392C441.799,401.099 432.447,403.237 435.5,412C438.497,406.205 441.226,397.915 449,397.5C448.407,393.905 445.626,398.289 444,395.5C443.456,394.568 446.868,392.174 443.5,392ZM426.5,393C425.879,393.054 424.112,395.385 425.5,396C427.636,396.946 428.406,392.833 426.5,393ZM263.5,398C256.333,396.699 265.839,410.039 267.5,410C272.929,409.874 264.24,398.134 263.5,398ZM437.5,398C435.6,398.194 436.47,401.198 437.5,401C437.679,400.966 439.968,397.747 437.5,398ZM430.5,402L417,411.5C417.427,412.226 431.377,404.108 430.5,402ZM389,420C387.051,424.37 381.673,427.108 378,430C377.008,430.561 374.927,430.492 374,432.5C376.079,434.208 377.238,430.6 378,430C384.291,426.44 390.355,422.8 396.5,419C398.625,417.098 393.194,416.947 393,417L393,409.5C389.97,407.603 370.186,417.63 374.5,424C374.248,424.127 373.369,420.125 370.5,420C369.151,419.941 344.65,433.947 355.5,437C357.308,437.509 384.878,421.967 389,420ZM430.5,409L428.5,414L432,410.5L430.5,409ZM428.5,420C427.473,420.178 414.758,436.419 417.5,437C420.87,431.833 425.687,424.007 431,421.5C431.738,420.033 429.746,419.785 428.5,420ZM345.5,422C345.037,421.952 338.103,427.047 338,427.5C336.774,432.88 348.617,436.058 350,430.5C350.193,429.724 346.207,422.073 345.5,422ZM404.5,426C402.613,426.214 402.926,429.365 405.5,428C406.52,427.459 404.611,425.987 404.5,426ZM336.5,429C333.154,428.985 334.792,437.837 338.5,438C345.321,437.722 337.141,429.003 336.5,429ZM391.5,429C389.923,429.2 387.998,435.066 390.5,435C391.903,434.963 393.55,428.74 391.5,429ZM331.5,432C324.355,431.41 329.558,442.144 331.5,442C335.49,441.703 335.97,432.369 331.5,432ZM350.5,432C350.07,431.923 344.278,436.011 343,436.5C345.87,445.537 357.694,433.292 350.5,432ZM386,452C385.668,452.325 385.063,452.948 385,453L379,453.5C379.044,451.033 386.692,448.466 382.5,447C380.8,448.743 372.837,456.779 376.5,459C377.911,458.011 380.481,459.06 381,459C382.779,458.794 394.693,454.269 395,453.5C395.117,453.206 392.8,447.745 393,447.5C394.238,445.986 395.465,449.201 397,446.5C398.014,444.716 395.251,440.198 392,441C393.137,436.796 394.053,436.918 396,433.5C386.222,436.335 392.999,445.135 386,452ZM357.5,437C357.184,437.109 355.523,438.499 356.5,439L361,438.5C361.427,436.536 358.419,436.683 357.5,437ZM335.5,442C335.14,441.967 328.612,446.726 332.5,447C332.964,442.62 337.448,448.991 338,445.5C338.176,444.386 335.883,442.035 335.5,442ZM341.5,442C336.899,443.667 340.777,447.538 342.5,450L345,443.5L341.5,446L341.5,442ZM410,453C410.896,452.644 411.412,452.233 412,451.5C409.595,449.65 410.122,452.971 410,453C408.73,453.302 409.263,451.541 408.5,451C407.35,454.42 407.754,453.891 410,453ZM405.5,453L401.5,459L405.5,458L405.5,453ZM350.5,455C349.888,455.793 348.792,455.914 349.5,457C350.891,459.132 351.738,456.836 350.5,455ZM390.5,461C390.328,461.024 388.486,462.486 389.5,463C391.581,462.981 392.999,460.652 390.5,461Z" style="fill:rgb(64,103,144);fill-rule:nonzero;"/>
            <path d="M509,236C517.192,271.422 514.253,315.824 502,350C498.552,359.618 488.784,382.833 482,392C479.89,394.851 477.105,395.967 475.5,399C470.571,396.135 476.877,392.883 477,392.5C482.719,374.673 491.018,355.449 496,336C498.94,324.525 502.904,309.594 504,298C504.265,295.2 503.696,287.932 503,285C503.083,284.367 502.839,283.442 503,283C503.239,282.342 503.19,270.473 503,269C504.664,267.911 504.136,263.772 504,262C516.556,260.412 500.204,240.74 509,236Z" style="fill:rgb(139,176,168);fill-rule:nonzero;"/>
            <path d="M500,258C502.033,263.005 502.088,261.94 503,269C503.19,270.473 503.239,282.342 503,283C500.392,283.848 502.956,284.816 503,285C503.696,287.932 504.265,295.2 504,298C502.028,297.359 501.3,301.222 501,302.5C498.77,311.993 497.119,322.309 495,332L487,335C487.659,332.368 486.19,320.772 488.5,319C490.033,317.824 489.683,321.585 491,320.5C492.968,318.88 490.211,313.11 497,312.5C495.779,311.691 493.765,312.276 493,310.5C491.841,307.807 495.724,278.052 494,273.5C487.991,275.249 493.791,270.498 494,268.5C494.304,265.586 492.981,263.062 493,262C499.272,260.811 497.537,255.684 498.5,251C499.139,253.644 498.909,255.314 500,258Z" style="fill:rgb(174,200,135);fill-rule:nonzero;"/>
            <path id="BalloonBorder" d="M392,123C412.388,126.299 431.997,135.607 449,147C449.98,147.656 451.042,148.319 452,149C454.269,150.612 456.866,152.262 459,154C460.25,155.018 462.48,156.541 463,157C559.721,242.259 509.999,433.063 400.5,481C396.253,482.859 380.701,485.674 379,487C377.147,488.445 379.303,492.17 378,495C370.18,486.778 363.586,489.188 356,494.5C357.287,496.446 358.89,495.097 361,495C360.973,498.843 365.437,498.423 368,500C367.162,500.018 366.96,500.738 366,501C361.603,502.199 358.129,500.945 355,504C354.807,504.188 355.208,505.629 355,506C354.417,507.037 354.392,505.855 354,508C353.217,512.283 350.676,511.315 354,515C353.889,514.875 351.541,515.17 351,513.5C349.025,507.4 356.983,495.529 355,490.5C354.388,488.949 328.915,479.434 324.5,477C277.076,450.858 227.715,370.396 222,317C221.931,316.351 222.073,315.647 222,315L225,314C223.756,318.31 227.149,329.463 229,334C231.248,344.972 234.632,358.234 239,368.5C245.571,383.943 256.183,399.826 265,413C282.554,439.228 305.783,467.741 336.5,479C342.191,481.086 357.609,485.888 362,483C364.306,485.064 364.94,482.97 366,483C370.064,483.115 372.883,483.287 377,483C382.272,482.632 381.141,483.434 387,482C426.412,472.351 453.774,438.177 475,406C477.874,401.643 481.385,397.549 484,393C491.47,380.003 499.4,364.645 502,350C514.253,315.824 517.192,271.422 509,236C503.147,210.691 488.362,188.798 471,170C470.315,169.259 469.644,168.672 469,168C451.59,149.821 436.072,138.985 412,131C343.607,108.314 279.412,135.142 244,196C219.27,238.5 219.971,259.466 224,307C224.058,307.679 221.972,311.732 222,312C220.294,304.545 219.361,296.64 219,289C218.922,287.349 219.039,285.655 219,284C218.466,261.571 221.048,240.035 229,219C246.278,173.295 287.571,133.597 336,124C355.494,120.137 372.371,119.823 392,123Z" style="fill:rgb(20,29,46);fill-rule:nonzero;"/>
            <path d="M504,298C502.904,309.594 498.94,324.525 496,336C492.774,336.322 494.484,334.36 495,332C497.119,322.309 498.77,311.993 501,302.5C501.3,301.222 502.028,297.359 504,298Z" style="fill:rgb(90,107,114);fill-rule:nonzero;"/>
            <path d="M502,350C499.4,364.645 491.47,380.003 484,393L482,392C488.784,382.833 498.552,359.618 502,350Z" style="fill:rgb(107,160,165);fill-rule:nonzero;"/>
            <path d="M372.5,926L377.5,933C374.449,934.2 370.523,927.058 372.5,926Z" style="fill:rgb(203,206,186);fill-rule:nonzero;"/>
            <g id="String" transform="matrix(1,0,0,1,-1.46101,0)">
                <path d="M392,852C378.904,868.402 365.661,891.807 372,914.5C373.039,918.219 387.27,938.508 378.5,942C361.958,948.587 369.583,898.453 371,890.5C374.257,872.218 377.164,865.734 388,851C391.389,846.391 397.07,842.667 400,838.5C440.347,781.116 351.283,713.128 346,656.5C341.978,613.392 365.783,567.849 372,526L373,526C367.623,568.122 343.642,612.583 348,655.5C353.492,709.588 441.939,779.683 405,837.5C401.741,842.601 395.89,847.129 392,852ZM372.5,926C370.523,927.058 374.449,934.2 377.5,933L372.5,926Z" style="fill:rgb(33,43,44);fill-rule:nonzero;"/>
            </g>
        </g>
    </g>
</svg>
